G04 #@! TF.FileFunction,Legend,Top*
%FSLAX46Y46*%
G04 Gerber Fmt 4.6, Leading zero omitted, Abs format (unit mm)*
G04 Created by KiCad (PCBNEW 4.0.5+dfsg1-4~bpo8+1) date Thu Apr 20 00:43:30 2017*
%MOMM*%
%LPD*%
G01*
G04 APERTURE LIST*
%ADD10C,0.100000*%
%ADD11C,0.127000*%
%ADD12C,0.203200*%
%ADD13C,0.152400*%
%ADD14C,0.150000*%
%ADD15C,0.254000*%
%ADD16C,0.002540*%
G04 APERTURE END LIST*
D10*
D11*
X118258167Y-50546000D02*
X118227929Y-50576238D01*
X118137214Y-50636714D01*
X118076738Y-50666952D01*
X117986024Y-50697190D01*
X117834833Y-50727429D01*
X117713881Y-50727429D01*
X117562690Y-50697190D01*
X117471976Y-50666952D01*
X117411500Y-50636714D01*
X117320786Y-50576238D01*
X117290548Y-50546000D01*
X117592929Y-50364572D02*
X118016262Y-50213381D01*
X117592929Y-50062191D01*
X118016262Y-49487666D02*
X118016262Y-49850524D01*
X118016262Y-49669095D02*
X117381262Y-49669095D01*
X117471976Y-49729571D01*
X117532452Y-49790047D01*
X117562690Y-49850524D01*
X118258167Y-49276000D02*
X118227929Y-49245762D01*
X118137214Y-49185285D01*
X118076738Y-49155047D01*
X117986024Y-49124809D01*
X117834833Y-49094571D01*
X117713881Y-49094571D01*
X117562690Y-49124809D01*
X117471976Y-49155047D01*
X117411500Y-49185285D01*
X117320786Y-49245762D01*
X117290548Y-49276000D01*
X119243929Y-66387740D02*
X119757976Y-66387740D01*
X119818452Y-66417978D01*
X119848690Y-66448216D01*
X119878929Y-66508692D01*
X119878929Y-66599406D01*
X119848690Y-66659883D01*
X119637024Y-66387740D02*
X119667262Y-66448216D01*
X119667262Y-66569168D01*
X119637024Y-66629644D01*
X119606786Y-66659883D01*
X119546310Y-66690121D01*
X119364881Y-66690121D01*
X119304405Y-66659883D01*
X119274167Y-66629644D01*
X119243929Y-66569168D01*
X119243929Y-66448216D01*
X119274167Y-66387740D01*
X119667262Y-66085359D02*
X119243929Y-66085359D01*
X119032262Y-66085359D02*
X119062500Y-66115597D01*
X119092738Y-66085359D01*
X119062500Y-66055120D01*
X119032262Y-66085359D01*
X119092738Y-66085359D01*
X119243929Y-65873692D02*
X119243929Y-65631787D01*
X119032262Y-65782978D02*
X119576548Y-65782978D01*
X119637024Y-65752739D01*
X119667262Y-65692263D01*
X119667262Y-65631787D01*
X119667262Y-65420121D02*
X119032262Y-65420121D01*
X119667262Y-65147978D02*
X119334643Y-65147978D01*
X119274167Y-65178216D01*
X119243929Y-65238692D01*
X119243929Y-65329406D01*
X119274167Y-65389882D01*
X119304405Y-65420121D01*
X119243929Y-64573454D02*
X119667262Y-64573454D01*
X119243929Y-64845597D02*
X119576548Y-64845597D01*
X119637024Y-64815358D01*
X119667262Y-64754882D01*
X119667262Y-64664168D01*
X119637024Y-64603692D01*
X119606786Y-64573454D01*
X119667262Y-64271073D02*
X119032262Y-64271073D01*
X119274167Y-64271073D02*
X119243929Y-64210596D01*
X119243929Y-64089644D01*
X119274167Y-64029168D01*
X119304405Y-63998930D01*
X119364881Y-63968692D01*
X119546310Y-63968692D01*
X119606786Y-63998930D01*
X119637024Y-64029168D01*
X119667262Y-64089644D01*
X119667262Y-64210596D01*
X119637024Y-64271073D01*
X119606786Y-63696549D02*
X119637024Y-63666310D01*
X119667262Y-63696549D01*
X119637024Y-63726787D01*
X119606786Y-63696549D01*
X119667262Y-63696549D01*
X119637024Y-63122025D02*
X119667262Y-63182501D01*
X119667262Y-63303453D01*
X119637024Y-63363929D01*
X119606786Y-63394168D01*
X119546310Y-63424406D01*
X119364881Y-63424406D01*
X119304405Y-63394168D01*
X119274167Y-63363929D01*
X119243929Y-63303453D01*
X119243929Y-63182501D01*
X119274167Y-63122025D01*
X119667262Y-62759167D02*
X119637024Y-62819643D01*
X119606786Y-62849882D01*
X119546310Y-62880120D01*
X119364881Y-62880120D01*
X119304405Y-62849882D01*
X119274167Y-62819643D01*
X119243929Y-62759167D01*
X119243929Y-62668453D01*
X119274167Y-62607977D01*
X119304405Y-62577739D01*
X119364881Y-62547501D01*
X119546310Y-62547501D01*
X119606786Y-62577739D01*
X119637024Y-62607977D01*
X119667262Y-62668453D01*
X119667262Y-62759167D01*
X119667262Y-62275358D02*
X119243929Y-62275358D01*
X119304405Y-62275358D02*
X119274167Y-62245119D01*
X119243929Y-62184643D01*
X119243929Y-62093929D01*
X119274167Y-62033453D01*
X119334643Y-62003215D01*
X119667262Y-62003215D01*
X119334643Y-62003215D02*
X119274167Y-61972977D01*
X119243929Y-61912500D01*
X119243929Y-61821786D01*
X119274167Y-61761310D01*
X119334643Y-61731072D01*
X119667262Y-61731072D01*
X119002024Y-60975119D02*
X119818452Y-61519405D01*
X119243929Y-60763453D02*
X119878929Y-60763453D01*
X119274167Y-60763453D02*
X119243929Y-60702976D01*
X119243929Y-60582024D01*
X119274167Y-60521548D01*
X119304405Y-60491310D01*
X119364881Y-60461072D01*
X119546310Y-60461072D01*
X119606786Y-60491310D01*
X119637024Y-60521548D01*
X119667262Y-60582024D01*
X119667262Y-60702976D01*
X119637024Y-60763453D01*
X119637024Y-59947024D02*
X119667262Y-60007500D01*
X119667262Y-60128452D01*
X119637024Y-60188929D01*
X119576548Y-60219167D01*
X119334643Y-60219167D01*
X119274167Y-60188929D01*
X119243929Y-60128452D01*
X119243929Y-60007500D01*
X119274167Y-59947024D01*
X119334643Y-59916786D01*
X119395119Y-59916786D01*
X119455595Y-60219167D01*
X119243929Y-59644643D02*
X119878929Y-59644643D01*
X119274167Y-59644643D02*
X119243929Y-59584166D01*
X119243929Y-59463214D01*
X119274167Y-59402738D01*
X119304405Y-59372500D01*
X119364881Y-59342262D01*
X119546310Y-59342262D01*
X119606786Y-59372500D01*
X119637024Y-59402738D01*
X119667262Y-59463214D01*
X119667262Y-59584166D01*
X119637024Y-59644643D01*
X119667262Y-58797976D02*
X119334643Y-58797976D01*
X119274167Y-58828214D01*
X119243929Y-58888690D01*
X119243929Y-59009642D01*
X119274167Y-59070119D01*
X119637024Y-58797976D02*
X119667262Y-58858452D01*
X119667262Y-59009642D01*
X119637024Y-59070119D01*
X119576548Y-59100357D01*
X119516071Y-59100357D01*
X119455595Y-59070119D01*
X119425357Y-59009642D01*
X119425357Y-58858452D01*
X119395119Y-58797976D01*
X119637024Y-58525833D02*
X119667262Y-58465356D01*
X119667262Y-58344404D01*
X119637024Y-58283928D01*
X119576548Y-58253690D01*
X119546310Y-58253690D01*
X119485833Y-58283928D01*
X119455595Y-58344404D01*
X119455595Y-58435118D01*
X119425357Y-58495595D01*
X119364881Y-58525833D01*
X119334643Y-58525833D01*
X119274167Y-58495595D01*
X119243929Y-58435118D01*
X119243929Y-58344404D01*
X119274167Y-58283928D01*
X119667262Y-57890832D02*
X119637024Y-57951308D01*
X119576548Y-57981547D01*
X119032262Y-57981547D01*
X119667262Y-57376785D02*
X119334643Y-57376785D01*
X119274167Y-57407023D01*
X119243929Y-57467499D01*
X119243929Y-57588451D01*
X119274167Y-57648928D01*
X119637024Y-57376785D02*
X119667262Y-57437261D01*
X119667262Y-57588451D01*
X119637024Y-57648928D01*
X119576548Y-57679166D01*
X119516071Y-57679166D01*
X119455595Y-57648928D01*
X119425357Y-57588451D01*
X119425357Y-57437261D01*
X119395119Y-57376785D01*
X119667262Y-57074404D02*
X119032262Y-57074404D01*
X119274167Y-57074404D02*
X119243929Y-57013927D01*
X119243929Y-56892975D01*
X119274167Y-56832499D01*
X119304405Y-56802261D01*
X119364881Y-56772023D01*
X119546310Y-56772023D01*
X119606786Y-56802261D01*
X119637024Y-56832499D01*
X119667262Y-56892975D01*
X119667262Y-57013927D01*
X119637024Y-57074404D01*
X119637024Y-56530118D02*
X119667262Y-56469641D01*
X119667262Y-56348689D01*
X119637024Y-56288213D01*
X119576548Y-56257975D01*
X119546310Y-56257975D01*
X119485833Y-56288213D01*
X119455595Y-56348689D01*
X119455595Y-56439403D01*
X119425357Y-56499880D01*
X119364881Y-56530118D01*
X119334643Y-56530118D01*
X119274167Y-56499880D01*
X119243929Y-56439403D01*
X119243929Y-56348689D01*
X119274167Y-56288213D01*
X119002024Y-55532260D02*
X119818452Y-56076546D01*
X119243929Y-55320594D02*
X119878929Y-55320594D01*
X119274167Y-55320594D02*
X119243929Y-55260117D01*
X119243929Y-55139165D01*
X119274167Y-55078689D01*
X119304405Y-55048451D01*
X119364881Y-55018213D01*
X119546310Y-55018213D01*
X119606786Y-55048451D01*
X119637024Y-55078689D01*
X119667262Y-55139165D01*
X119667262Y-55260117D01*
X119637024Y-55320594D01*
X119667262Y-54746070D02*
X119243929Y-54746070D01*
X119364881Y-54746070D02*
X119304405Y-54715831D01*
X119274167Y-54685593D01*
X119243929Y-54625117D01*
X119243929Y-54564641D01*
X119667262Y-54262260D02*
X119637024Y-54322736D01*
X119606786Y-54352975D01*
X119546310Y-54383213D01*
X119364881Y-54383213D01*
X119304405Y-54352975D01*
X119274167Y-54322736D01*
X119243929Y-54262260D01*
X119243929Y-54171546D01*
X119274167Y-54111070D01*
X119304405Y-54080832D01*
X119364881Y-54050594D01*
X119546310Y-54050594D01*
X119606786Y-54080832D01*
X119637024Y-54111070D01*
X119667262Y-54171546D01*
X119667262Y-54262260D01*
X119243929Y-53506308D02*
X119757976Y-53506308D01*
X119818452Y-53536546D01*
X119848690Y-53566784D01*
X119878929Y-53627260D01*
X119878929Y-53717974D01*
X119848690Y-53778451D01*
X119637024Y-53506308D02*
X119667262Y-53566784D01*
X119667262Y-53687736D01*
X119637024Y-53748212D01*
X119606786Y-53778451D01*
X119546310Y-53808689D01*
X119364881Y-53808689D01*
X119304405Y-53778451D01*
X119274167Y-53748212D01*
X119243929Y-53687736D01*
X119243929Y-53566784D01*
X119274167Y-53506308D01*
X119425357Y-53203927D02*
X119425357Y-52720117D01*
X119637024Y-52145594D02*
X119667262Y-52206070D01*
X119667262Y-52327022D01*
X119637024Y-52387498D01*
X119606786Y-52417737D01*
X119546310Y-52447975D01*
X119364881Y-52447975D01*
X119304405Y-52417737D01*
X119274167Y-52387498D01*
X119243929Y-52327022D01*
X119243929Y-52206070D01*
X119274167Y-52145594D01*
X119637024Y-51601308D02*
X119667262Y-51661784D01*
X119667262Y-51782736D01*
X119637024Y-51843212D01*
X119606786Y-51873451D01*
X119546310Y-51903689D01*
X119364881Y-51903689D01*
X119304405Y-51873451D01*
X119274167Y-51843212D01*
X119243929Y-51782736D01*
X119243929Y-51661784D01*
X119274167Y-51601308D01*
X119425357Y-51329165D02*
X119425357Y-50845355D01*
X119667262Y-50210355D02*
X119667262Y-50573213D01*
X119667262Y-50391784D02*
X119032262Y-50391784D01*
X119122976Y-50452260D01*
X119183452Y-50512736D01*
X119213690Y-50573213D01*
X119032262Y-49817260D02*
X119032262Y-49756784D01*
X119062500Y-49696308D01*
X119092738Y-49666070D01*
X119153214Y-49635832D01*
X119274167Y-49605593D01*
X119425357Y-49605593D01*
X119546310Y-49635832D01*
X119606786Y-49666070D01*
X119637024Y-49696308D01*
X119667262Y-49756784D01*
X119667262Y-49817260D01*
X119637024Y-49877736D01*
X119606786Y-49907974D01*
X119546310Y-49938213D01*
X119425357Y-49968451D01*
X119274167Y-49968451D01*
X119153214Y-49938213D01*
X119092738Y-49907974D01*
X119062500Y-49877736D01*
X119032262Y-49817260D01*
X119032262Y-49212498D02*
X119032262Y-49152022D01*
X119062500Y-49091546D01*
X119092738Y-49061308D01*
X119153214Y-49031070D01*
X119274167Y-49000831D01*
X119425357Y-49000831D01*
X119546310Y-49031070D01*
X119606786Y-49061308D01*
X119637024Y-49091546D01*
X119667262Y-49152022D01*
X119667262Y-49212498D01*
X119637024Y-49272974D01*
X119606786Y-49303212D01*
X119546310Y-49333451D01*
X119425357Y-49363689D01*
X119274167Y-49363689D01*
X119153214Y-49333451D01*
X119092738Y-49303212D01*
X119062500Y-49272974D01*
X119032262Y-49212498D01*
X119667262Y-48728689D02*
X119243929Y-48728689D01*
X119304405Y-48728689D02*
X119274167Y-48698450D01*
X119243929Y-48637974D01*
X119243929Y-48547260D01*
X119274167Y-48486784D01*
X119334643Y-48456546D01*
X119667262Y-48456546D01*
X119334643Y-48456546D02*
X119274167Y-48426308D01*
X119243929Y-48365831D01*
X119243929Y-48275117D01*
X119274167Y-48214641D01*
X119334643Y-48184403D01*
X119667262Y-48184403D01*
X119485833Y-47912260D02*
X119485833Y-47609879D01*
X119667262Y-47972736D02*
X119032262Y-47761069D01*
X119667262Y-47549402D01*
D12*
X115420019Y-66269808D02*
X115420019Y-66173047D01*
X115468400Y-66076285D01*
X115516781Y-66027904D01*
X115613543Y-65979523D01*
X115807067Y-65931142D01*
X116048971Y-65931142D01*
X116242495Y-65979523D01*
X116339257Y-66027904D01*
X116387638Y-66076285D01*
X116436019Y-66173047D01*
X116436019Y-66269808D01*
X116387638Y-66366570D01*
X116339257Y-66414951D01*
X116242495Y-66463332D01*
X116048971Y-66511713D01*
X115807067Y-66511713D01*
X115613543Y-66463332D01*
X115516781Y-66414951D01*
X115468400Y-66366570D01*
X115420019Y-66269808D01*
X116048971Y-65495713D02*
X116048971Y-64721618D01*
X116436019Y-63705618D02*
X116436019Y-64286189D01*
X116436019Y-63995903D02*
X115420019Y-63995903D01*
X115565162Y-64092665D01*
X115661924Y-64189427D01*
X115710305Y-64286189D01*
X115420019Y-63076665D02*
X115420019Y-62979904D01*
X115468400Y-62883142D01*
X115516781Y-62834761D01*
X115613543Y-62786380D01*
X115807067Y-62737999D01*
X116048971Y-62737999D01*
X116242495Y-62786380D01*
X116339257Y-62834761D01*
X116387638Y-62883142D01*
X116436019Y-62979904D01*
X116436019Y-63076665D01*
X116387638Y-63173427D01*
X116339257Y-63221808D01*
X116242495Y-63270189D01*
X116048971Y-63318570D01*
X115807067Y-63318570D01*
X115613543Y-63270189D01*
X115516781Y-63221808D01*
X115468400Y-63173427D01*
X115420019Y-63076665D01*
X115420019Y-62109046D02*
X115420019Y-62012285D01*
X115468400Y-61915523D01*
X115516781Y-61867142D01*
X115613543Y-61818761D01*
X115807067Y-61770380D01*
X116048971Y-61770380D01*
X116242495Y-61818761D01*
X116339257Y-61867142D01*
X116387638Y-61915523D01*
X116436019Y-62012285D01*
X116436019Y-62109046D01*
X116387638Y-62205808D01*
X116339257Y-62254189D01*
X116242495Y-62302570D01*
X116048971Y-62350951D01*
X115807067Y-62350951D01*
X115613543Y-62302570D01*
X115516781Y-62254189D01*
X115468400Y-62205808D01*
X115420019Y-62109046D01*
X116436019Y-61334951D02*
X115758686Y-61334951D01*
X115855448Y-61334951D02*
X115807067Y-61286570D01*
X115758686Y-61189808D01*
X115758686Y-61044666D01*
X115807067Y-60947904D01*
X115903829Y-60899523D01*
X116436019Y-60899523D01*
X115903829Y-60899523D02*
X115807067Y-60851142D01*
X115758686Y-60754380D01*
X115758686Y-60609237D01*
X115807067Y-60512475D01*
X115903829Y-60464094D01*
X116436019Y-60464094D01*
X116145733Y-60028665D02*
X116145733Y-59544856D01*
X116436019Y-60125427D02*
X115420019Y-59786760D01*
X116436019Y-59448094D01*
X116436019Y-58335332D02*
X115420019Y-58335332D01*
X115420019Y-57948285D01*
X115468400Y-57851523D01*
X115516781Y-57803142D01*
X115613543Y-57754761D01*
X115758686Y-57754761D01*
X115855448Y-57803142D01*
X115903829Y-57851523D01*
X115952210Y-57948285D01*
X115952210Y-58335332D01*
X116436019Y-57319332D02*
X115758686Y-57319332D01*
X115952210Y-57319332D02*
X115855448Y-57270951D01*
X115807067Y-57222570D01*
X115758686Y-57125808D01*
X115758686Y-57029047D01*
X116436019Y-56545237D02*
X116387638Y-56641999D01*
X116339257Y-56690380D01*
X116242495Y-56738761D01*
X115952210Y-56738761D01*
X115855448Y-56690380D01*
X115807067Y-56641999D01*
X115758686Y-56545237D01*
X115758686Y-56400095D01*
X115807067Y-56303333D01*
X115855448Y-56254952D01*
X115952210Y-56206571D01*
X116242495Y-56206571D01*
X116339257Y-56254952D01*
X116387638Y-56303333D01*
X116436019Y-56400095D01*
X116436019Y-56545237D01*
X115758686Y-55335714D02*
X116581162Y-55335714D01*
X116677924Y-55384095D01*
X116726305Y-55432476D01*
X116774686Y-55529237D01*
X116774686Y-55674380D01*
X116726305Y-55771142D01*
X116387638Y-55335714D02*
X116436019Y-55432476D01*
X116436019Y-55625999D01*
X116387638Y-55722761D01*
X116339257Y-55771142D01*
X116242495Y-55819523D01*
X115952210Y-55819523D01*
X115855448Y-55771142D01*
X115807067Y-55722761D01*
X115758686Y-55625999D01*
X115758686Y-55432476D01*
X115807067Y-55335714D01*
X116436019Y-54851904D02*
X115758686Y-54851904D01*
X115952210Y-54851904D02*
X115855448Y-54803523D01*
X115807067Y-54755142D01*
X115758686Y-54658380D01*
X115758686Y-54561619D01*
X116436019Y-53787524D02*
X115903829Y-53787524D01*
X115807067Y-53835905D01*
X115758686Y-53932667D01*
X115758686Y-54126190D01*
X115807067Y-54222952D01*
X116387638Y-53787524D02*
X116436019Y-53884286D01*
X116436019Y-54126190D01*
X116387638Y-54222952D01*
X116290876Y-54271333D01*
X116194114Y-54271333D01*
X116097352Y-54222952D01*
X116048971Y-54126190D01*
X116048971Y-53884286D01*
X116000590Y-53787524D01*
X116436019Y-53303714D02*
X115758686Y-53303714D01*
X115855448Y-53303714D02*
X115807067Y-53255333D01*
X115758686Y-53158571D01*
X115758686Y-53013429D01*
X115807067Y-52916667D01*
X115903829Y-52868286D01*
X116436019Y-52868286D01*
X115903829Y-52868286D02*
X115807067Y-52819905D01*
X115758686Y-52723143D01*
X115758686Y-52578000D01*
X115807067Y-52481238D01*
X115903829Y-52432857D01*
X116436019Y-52432857D01*
X116436019Y-51949047D02*
X115758686Y-51949047D01*
X115855448Y-51949047D02*
X115807067Y-51900666D01*
X115758686Y-51803904D01*
X115758686Y-51658762D01*
X115807067Y-51562000D01*
X115903829Y-51513619D01*
X116436019Y-51513619D01*
X115903829Y-51513619D02*
X115807067Y-51465238D01*
X115758686Y-51368476D01*
X115758686Y-51223333D01*
X115807067Y-51126571D01*
X115903829Y-51078190D01*
X116436019Y-51078190D01*
X116436019Y-50158952D02*
X115903829Y-50158952D01*
X115807067Y-50207333D01*
X115758686Y-50304095D01*
X115758686Y-50497618D01*
X115807067Y-50594380D01*
X116387638Y-50158952D02*
X116436019Y-50255714D01*
X116436019Y-50497618D01*
X116387638Y-50594380D01*
X116290876Y-50642761D01*
X116194114Y-50642761D01*
X116097352Y-50594380D01*
X116048971Y-50497618D01*
X116048971Y-50255714D01*
X116000590Y-50158952D01*
X116436019Y-49675142D02*
X115420019Y-49675142D01*
X115807067Y-49675142D02*
X115758686Y-49578380D01*
X115758686Y-49384857D01*
X115807067Y-49288095D01*
X115855448Y-49239714D01*
X115952210Y-49191333D01*
X116242495Y-49191333D01*
X116339257Y-49239714D01*
X116387638Y-49288095D01*
X116436019Y-49384857D01*
X116436019Y-49578380D01*
X116387638Y-49675142D01*
X116436019Y-48610761D02*
X116387638Y-48707523D01*
X116290876Y-48755904D01*
X115420019Y-48755904D01*
X116387638Y-47836667D02*
X116436019Y-47933429D01*
X116436019Y-48126952D01*
X116387638Y-48223714D01*
X116290876Y-48272095D01*
X115903829Y-48272095D01*
X115807067Y-48223714D01*
X115758686Y-48126952D01*
X115758686Y-47933429D01*
X115807067Y-47836667D01*
X115903829Y-47788286D01*
X116000590Y-47788286D01*
X116097352Y-48272095D01*
X118066457Y-62084856D02*
X118114838Y-62133237D01*
X118163219Y-62278380D01*
X118163219Y-62375142D01*
X118114838Y-62520284D01*
X118018076Y-62617046D01*
X117921314Y-62665427D01*
X117727790Y-62713808D01*
X117582648Y-62713808D01*
X117389124Y-62665427D01*
X117292362Y-62617046D01*
X117195600Y-62520284D01*
X117147219Y-62375142D01*
X117147219Y-62278380D01*
X117195600Y-62133237D01*
X117243981Y-62084856D01*
X117485886Y-61213999D02*
X118163219Y-61213999D01*
X117485886Y-61649427D02*
X118018076Y-61649427D01*
X118114838Y-61601046D01*
X118163219Y-61504284D01*
X118163219Y-61359142D01*
X118114838Y-61262380D01*
X118066457Y-61213999D01*
X118163219Y-60730189D02*
X117485886Y-60730189D01*
X117679410Y-60730189D02*
X117582648Y-60681808D01*
X117534267Y-60633427D01*
X117485886Y-60536665D01*
X117485886Y-60439904D01*
X118163219Y-60101237D02*
X117485886Y-60101237D01*
X117679410Y-60101237D02*
X117582648Y-60052856D01*
X117534267Y-60004475D01*
X117485886Y-59907713D01*
X117485886Y-59810952D01*
X118114838Y-59085238D02*
X118163219Y-59182000D01*
X118163219Y-59375523D01*
X118114838Y-59472285D01*
X118018076Y-59520666D01*
X117631029Y-59520666D01*
X117534267Y-59472285D01*
X117485886Y-59375523D01*
X117485886Y-59182000D01*
X117534267Y-59085238D01*
X117631029Y-59036857D01*
X117727790Y-59036857D01*
X117824552Y-59520666D01*
X117485886Y-58601428D02*
X118163219Y-58601428D01*
X117582648Y-58601428D02*
X117534267Y-58553047D01*
X117485886Y-58456285D01*
X117485886Y-58311143D01*
X117534267Y-58214381D01*
X117631029Y-58166000D01*
X118163219Y-58166000D01*
X117485886Y-57827333D02*
X117485886Y-57440285D01*
X117147219Y-57682190D02*
X118018076Y-57682190D01*
X118114838Y-57633809D01*
X118163219Y-57537047D01*
X118163219Y-57440285D01*
X118114838Y-56375905D02*
X118163219Y-56230762D01*
X118163219Y-55988858D01*
X118114838Y-55892096D01*
X118066457Y-55843715D01*
X117969695Y-55795334D01*
X117872933Y-55795334D01*
X117776171Y-55843715D01*
X117727790Y-55892096D01*
X117679410Y-55988858D01*
X117631029Y-56182381D01*
X117582648Y-56279143D01*
X117534267Y-56327524D01*
X117437505Y-56375905D01*
X117340743Y-56375905D01*
X117243981Y-56327524D01*
X117195600Y-56279143D01*
X117147219Y-56182381D01*
X117147219Y-55940477D01*
X117195600Y-55795334D01*
X118163219Y-55214762D02*
X118114838Y-55311524D01*
X118066457Y-55359905D01*
X117969695Y-55408286D01*
X117679410Y-55408286D01*
X117582648Y-55359905D01*
X117534267Y-55311524D01*
X117485886Y-55214762D01*
X117485886Y-55069620D01*
X117534267Y-54972858D01*
X117582648Y-54924477D01*
X117679410Y-54876096D01*
X117969695Y-54876096D01*
X118066457Y-54924477D01*
X118114838Y-54972858D01*
X118163219Y-55069620D01*
X118163219Y-55214762D01*
X117485886Y-54005239D02*
X118163219Y-54005239D01*
X117485886Y-54440667D02*
X118018076Y-54440667D01*
X118114838Y-54392286D01*
X118163219Y-54295524D01*
X118163219Y-54150382D01*
X118114838Y-54053620D01*
X118066457Y-54005239D01*
X118163219Y-53521429D02*
X117485886Y-53521429D01*
X117679410Y-53521429D02*
X117582648Y-53473048D01*
X117534267Y-53424667D01*
X117485886Y-53327905D01*
X117485886Y-53231144D01*
X118114838Y-52457049D02*
X118163219Y-52553811D01*
X118163219Y-52747334D01*
X118114838Y-52844096D01*
X118066457Y-52892477D01*
X117969695Y-52940858D01*
X117679410Y-52940858D01*
X117582648Y-52892477D01*
X117534267Y-52844096D01*
X117485886Y-52747334D01*
X117485886Y-52553811D01*
X117534267Y-52457049D01*
X118114838Y-51634573D02*
X118163219Y-51731335D01*
X118163219Y-51924858D01*
X118114838Y-52021620D01*
X118018076Y-52070001D01*
X117631029Y-52070001D01*
X117534267Y-52021620D01*
X117485886Y-51924858D01*
X117485886Y-51731335D01*
X117534267Y-51634573D01*
X117631029Y-51586192D01*
X117727790Y-51586192D01*
X117824552Y-52070001D01*
D11*
X108962976Y-75217262D02*
X109083928Y-75217262D01*
X109144404Y-75247500D01*
X109204881Y-75307976D01*
X109235119Y-75428929D01*
X109235119Y-75640595D01*
X109204881Y-75761548D01*
X109144404Y-75822024D01*
X109083928Y-75852262D01*
X108962976Y-75852262D01*
X108902500Y-75822024D01*
X108842023Y-75761548D01*
X108811785Y-75640595D01*
X108811785Y-75428929D01*
X108842023Y-75307976D01*
X108902500Y-75247500D01*
X108962976Y-75217262D01*
X109507261Y-75217262D02*
X109507261Y-75731310D01*
X109537500Y-75791786D01*
X109567738Y-75822024D01*
X109628214Y-75852262D01*
X109749166Y-75852262D01*
X109809642Y-75822024D01*
X109839881Y-75791786D01*
X109870119Y-75731310D01*
X109870119Y-75217262D01*
X110081785Y-75217262D02*
X110444642Y-75217262D01*
X110263214Y-75852262D02*
X110263214Y-75217262D01*
X110656309Y-75852262D02*
X110656309Y-75217262D01*
X110898214Y-75217262D01*
X110958690Y-75247500D01*
X110988929Y-75277738D01*
X111019167Y-75338214D01*
X111019167Y-75428929D01*
X110988929Y-75489405D01*
X110958690Y-75519643D01*
X110898214Y-75549881D01*
X110656309Y-75549881D01*
X111291309Y-75217262D02*
X111291309Y-75731310D01*
X111321548Y-75791786D01*
X111351786Y-75822024D01*
X111412262Y-75852262D01*
X111533214Y-75852262D01*
X111593690Y-75822024D01*
X111623929Y-75791786D01*
X111654167Y-75731310D01*
X111654167Y-75217262D01*
X111865833Y-75217262D02*
X112228690Y-75217262D01*
X112047262Y-75852262D02*
X112047262Y-75217262D01*
D13*
X111469715Y-76889429D02*
X112050286Y-76889429D01*
X108929715Y-76889429D02*
X109510286Y-76889429D01*
X109220000Y-77179714D02*
X109220000Y-76599143D01*
X126709715Y-36249429D02*
X127290286Y-36249429D01*
X127000000Y-36539714D02*
X127000000Y-35959143D01*
X124169715Y-36249429D02*
X124750286Y-36249429D01*
X120359715Y-36249429D02*
X120940286Y-36249429D01*
X120650000Y-36539714D02*
X120650000Y-35959143D01*
D11*
X118593809Y-37847512D02*
X118593809Y-37212512D01*
X118956667Y-37847512D01*
X118956667Y-37212512D01*
X119259047Y-37514893D02*
X119470714Y-37514893D01*
X119561428Y-37847512D02*
X119259047Y-37847512D01*
X119259047Y-37212512D01*
X119561428Y-37212512D01*
X120166191Y-37242750D02*
X120105714Y-37212512D01*
X120015000Y-37212512D01*
X119924286Y-37242750D01*
X119863810Y-37303226D01*
X119833571Y-37363702D01*
X119803333Y-37484655D01*
X119803333Y-37575369D01*
X119833571Y-37696321D01*
X119863810Y-37756798D01*
X119924286Y-37817274D01*
X120015000Y-37847512D01*
X120075476Y-37847512D01*
X120166191Y-37817274D01*
X120196429Y-37787036D01*
X120196429Y-37575369D01*
X120075476Y-37575369D01*
X117701785Y-38896774D02*
X117792500Y-38927012D01*
X117943690Y-38927012D01*
X118004166Y-38896774D01*
X118034404Y-38866536D01*
X118064643Y-38806060D01*
X118064643Y-38745583D01*
X118034404Y-38685107D01*
X118004166Y-38654869D01*
X117943690Y-38624631D01*
X117822738Y-38594393D01*
X117762262Y-38564155D01*
X117732023Y-38533917D01*
X117701785Y-38473440D01*
X117701785Y-38412964D01*
X117732023Y-38352488D01*
X117762262Y-38322250D01*
X117822738Y-38292012D01*
X117973928Y-38292012D01*
X118064643Y-38322250D01*
X118336785Y-38292012D02*
X118336785Y-38806060D01*
X118367024Y-38866536D01*
X118397262Y-38896774D01*
X118457738Y-38927012D01*
X118578690Y-38927012D01*
X118639166Y-38896774D01*
X118669405Y-38866536D01*
X118699643Y-38806060D01*
X118699643Y-38292012D01*
X119002023Y-38927012D02*
X119002023Y-38292012D01*
X119243928Y-38292012D01*
X119304404Y-38322250D01*
X119334643Y-38352488D01*
X119364881Y-38412964D01*
X119364881Y-38503679D01*
X119334643Y-38564155D01*
X119304404Y-38594393D01*
X119243928Y-38624631D01*
X119002023Y-38624631D01*
X119637023Y-38927012D02*
X119637023Y-38292012D01*
X119878928Y-38292012D01*
X119939404Y-38322250D01*
X119969643Y-38352488D01*
X119999881Y-38412964D01*
X119999881Y-38503679D01*
X119969643Y-38564155D01*
X119939404Y-38594393D01*
X119878928Y-38624631D01*
X119637023Y-38624631D01*
X120574404Y-38927012D02*
X120272023Y-38927012D01*
X120272023Y-38292012D01*
X120907024Y-38624631D02*
X120907024Y-38927012D01*
X120695357Y-38292012D02*
X120907024Y-38624631D01*
X121118691Y-38292012D01*
X124928690Y-37847512D02*
X124928690Y-37212512D01*
X125170595Y-37212512D01*
X125231071Y-37242750D01*
X125261310Y-37272988D01*
X125291548Y-37333464D01*
X125291548Y-37424179D01*
X125261310Y-37484655D01*
X125231071Y-37514893D01*
X125170595Y-37545131D01*
X124928690Y-37545131D01*
X125684643Y-37212512D02*
X125805595Y-37212512D01*
X125866071Y-37242750D01*
X125926548Y-37303226D01*
X125956786Y-37424179D01*
X125956786Y-37635845D01*
X125926548Y-37756798D01*
X125866071Y-37817274D01*
X125805595Y-37847512D01*
X125684643Y-37847512D01*
X125624167Y-37817274D01*
X125563690Y-37756798D01*
X125533452Y-37635845D01*
X125533452Y-37424179D01*
X125563690Y-37303226D01*
X125624167Y-37242750D01*
X125684643Y-37212512D01*
X126198690Y-37817274D02*
X126289405Y-37847512D01*
X126440595Y-37847512D01*
X126501071Y-37817274D01*
X126531309Y-37787036D01*
X126561548Y-37726560D01*
X126561548Y-37666083D01*
X126531309Y-37605607D01*
X126501071Y-37575369D01*
X126440595Y-37545131D01*
X126319643Y-37514893D01*
X126259167Y-37484655D01*
X126228928Y-37454417D01*
X126198690Y-37393940D01*
X126198690Y-37333464D01*
X126228928Y-37272988D01*
X126259167Y-37242750D01*
X126319643Y-37212512D01*
X126470833Y-37212512D01*
X126561548Y-37242750D01*
X124051785Y-38896774D02*
X124142500Y-38927012D01*
X124293690Y-38927012D01*
X124354166Y-38896774D01*
X124384404Y-38866536D01*
X124414643Y-38806060D01*
X124414643Y-38745583D01*
X124384404Y-38685107D01*
X124354166Y-38654869D01*
X124293690Y-38624631D01*
X124172738Y-38594393D01*
X124112262Y-38564155D01*
X124082023Y-38533917D01*
X124051785Y-38473440D01*
X124051785Y-38412964D01*
X124082023Y-38352488D01*
X124112262Y-38322250D01*
X124172738Y-38292012D01*
X124323928Y-38292012D01*
X124414643Y-38322250D01*
X124686785Y-38292012D02*
X124686785Y-38806060D01*
X124717024Y-38866536D01*
X124747262Y-38896774D01*
X124807738Y-38927012D01*
X124928690Y-38927012D01*
X124989166Y-38896774D01*
X125019405Y-38866536D01*
X125049643Y-38806060D01*
X125049643Y-38292012D01*
X125352023Y-38927012D02*
X125352023Y-38292012D01*
X125593928Y-38292012D01*
X125654404Y-38322250D01*
X125684643Y-38352488D01*
X125714881Y-38412964D01*
X125714881Y-38503679D01*
X125684643Y-38564155D01*
X125654404Y-38594393D01*
X125593928Y-38624631D01*
X125352023Y-38624631D01*
X125987023Y-38927012D02*
X125987023Y-38292012D01*
X126228928Y-38292012D01*
X126289404Y-38322250D01*
X126319643Y-38352488D01*
X126349881Y-38412964D01*
X126349881Y-38503679D01*
X126319643Y-38564155D01*
X126289404Y-38594393D01*
X126228928Y-38624631D01*
X125987023Y-38624631D01*
X126924404Y-38927012D02*
X126622023Y-38927012D01*
X126622023Y-38292012D01*
X127257024Y-38624631D02*
X127257024Y-38927012D01*
X127045357Y-38292012D02*
X127257024Y-38624631D01*
X127468691Y-38292012D01*
D13*
X117819715Y-36249429D02*
X118400286Y-36249429D01*
D11*
X99014642Y-41657512D02*
X99377499Y-41657512D01*
X99196071Y-42292512D02*
X99196071Y-41657512D01*
X99498452Y-41657512D02*
X99861309Y-41657512D01*
X99679881Y-42292512D02*
X99679881Y-41657512D01*
X100375357Y-42292512D02*
X100072976Y-42292512D01*
X100072976Y-41657512D01*
X98228452Y-43341774D02*
X98319167Y-43372012D01*
X98470357Y-43372012D01*
X98530833Y-43341774D01*
X98561071Y-43311536D01*
X98591310Y-43251060D01*
X98591310Y-43190583D01*
X98561071Y-43130107D01*
X98530833Y-43099869D01*
X98470357Y-43069631D01*
X98349405Y-43039393D01*
X98288929Y-43009155D01*
X98258690Y-42978917D01*
X98228452Y-42918440D01*
X98228452Y-42857964D01*
X98258690Y-42797488D01*
X98288929Y-42767250D01*
X98349405Y-42737012D01*
X98500595Y-42737012D01*
X98591310Y-42767250D01*
X98863452Y-43039393D02*
X99075119Y-43039393D01*
X99165833Y-43372012D02*
X98863452Y-43372012D01*
X98863452Y-42737012D01*
X99165833Y-42737012D01*
X99800834Y-43372012D02*
X99589167Y-43069631D01*
X99437976Y-43372012D02*
X99437976Y-42737012D01*
X99679881Y-42737012D01*
X99740357Y-42767250D01*
X99770596Y-42797488D01*
X99800834Y-42857964D01*
X99800834Y-42948679D01*
X99770596Y-43009155D01*
X99740357Y-43039393D01*
X99679881Y-43069631D01*
X99437976Y-43069631D01*
X100072976Y-43372012D02*
X100072976Y-42737012D01*
X100345119Y-43190583D02*
X100647500Y-43190583D01*
X100284643Y-43372012D02*
X100496310Y-42737012D01*
X100707977Y-43372012D01*
X101222024Y-43372012D02*
X100919643Y-43372012D01*
X100919643Y-42737012D01*
X101751191Y-53022500D02*
X101690714Y-52992262D01*
X101600000Y-52992262D01*
X101509286Y-53022500D01*
X101448810Y-53082976D01*
X101418571Y-53143452D01*
X101388333Y-53264405D01*
X101388333Y-53355119D01*
X101418571Y-53476071D01*
X101448810Y-53536548D01*
X101509286Y-53597024D01*
X101600000Y-53627262D01*
X101660476Y-53627262D01*
X101751191Y-53597024D01*
X101781429Y-53566786D01*
X101781429Y-53355119D01*
X101660476Y-53355119D01*
X102053571Y-53627262D02*
X102053571Y-52992262D01*
X102416429Y-53627262D01*
X102416429Y-52992262D01*
X102718809Y-53627262D02*
X102718809Y-52992262D01*
X102870000Y-52992262D01*
X102960714Y-53022500D01*
X103021190Y-53082976D01*
X103051429Y-53143452D01*
X103081667Y-53264405D01*
X103081667Y-53355119D01*
X103051429Y-53476071D01*
X103021190Y-53536548D01*
X102960714Y-53597024D01*
X102870000Y-53627262D01*
X102718809Y-53627262D01*
X102129167Y-51087262D02*
X101917500Y-50784881D01*
X101766309Y-51087262D02*
X101766309Y-50452262D01*
X102008214Y-50452262D01*
X102068690Y-50482500D01*
X102098929Y-50512738D01*
X102129167Y-50573214D01*
X102129167Y-50663929D01*
X102098929Y-50724405D01*
X102068690Y-50754643D01*
X102008214Y-50784881D01*
X101766309Y-50784881D01*
X102340833Y-50452262D02*
X102764167Y-51087262D01*
X102764167Y-50452262D02*
X102340833Y-51087262D01*
X101751190Y-47912262D02*
X102114047Y-47912262D01*
X101932619Y-48547262D02*
X101932619Y-47912262D01*
X102265238Y-47912262D02*
X102688572Y-48547262D01*
X102688572Y-47912262D02*
X102265238Y-48547262D01*
X102114047Y-45372262D02*
X101811666Y-45372262D01*
X101781428Y-45674643D01*
X101811666Y-45644405D01*
X101872143Y-45614167D01*
X102023333Y-45614167D01*
X102083809Y-45644405D01*
X102114047Y-45674643D01*
X102144286Y-45735119D01*
X102144286Y-45886310D01*
X102114047Y-45946786D01*
X102083809Y-45977024D01*
X102023333Y-46007262D01*
X101872143Y-46007262D01*
X101811666Y-45977024D01*
X101781428Y-45946786D01*
X102325714Y-45372262D02*
X102537381Y-46007262D01*
X102749048Y-45372262D01*
D14*
X148010000Y-77470000D02*
G75*
G03X148010000Y-77470000I-4500000J0D01*
G01*
X106100000Y-77470000D02*
G75*
G03X106100000Y-77470000I-4500000J0D01*
G01*
X148010000Y-35560000D02*
G75*
G03X148010000Y-35560000I-4500000J0D01*
G01*
X106100000Y-35560000D02*
G75*
G03X106100000Y-35560000I-4500000J0D01*
G01*
D15*
X111506000Y-42926000D02*
X104394000Y-42926000D01*
X104394000Y-42926000D02*
X104394000Y-40894000D01*
X104394000Y-40894000D02*
X111506000Y-40894000D01*
X111506000Y-40894000D02*
X111506000Y-42926000D01*
X145796000Y-61214000D02*
X145796000Y-68326000D01*
X145796000Y-68326000D02*
X143764000Y-68326000D01*
X143764000Y-68326000D02*
X143764000Y-61214000D01*
X143764000Y-61214000D02*
X145796000Y-61214000D01*
X143764000Y-48006000D02*
X143764000Y-40894000D01*
X143764000Y-40894000D02*
X145796000Y-40894000D01*
X145796000Y-40894000D02*
X145796000Y-48006000D01*
X145796000Y-48006000D02*
X143764000Y-48006000D01*
X138430000Y-35560000D02*
G75*
G03X138430000Y-35560000I-2540000J0D01*
G01*
X111760000Y-35560000D02*
G75*
G03X111760000Y-35560000I-2540000J0D01*
G01*
X112776000Y-57404000D02*
X112776000Y-64516000D01*
X112776000Y-64516000D02*
X110744000Y-64516000D01*
X110744000Y-64516000D02*
X110744000Y-57404000D01*
X110744000Y-57404000D02*
X112776000Y-57404000D01*
X136906000Y-49276000D02*
X129794000Y-49276000D01*
X129794000Y-49276000D02*
X129794000Y-47244000D01*
X129794000Y-47244000D02*
X136906000Y-47244000D01*
X136906000Y-47244000D02*
X136906000Y-49276000D01*
X136906000Y-64516000D02*
X129794000Y-64516000D01*
X129794000Y-64516000D02*
X129794000Y-62484000D01*
X129794000Y-62484000D02*
X136906000Y-62484000D01*
X136906000Y-62484000D02*
X136906000Y-64516000D01*
X125984000Y-59436000D02*
X125984000Y-52324000D01*
X125984000Y-52324000D02*
X128016000Y-52324000D01*
X128016000Y-52324000D02*
X128016000Y-59436000D01*
X128016000Y-59436000D02*
X125984000Y-59436000D01*
X133731000Y-69596000D02*
X126619000Y-69596000D01*
X126619000Y-69596000D02*
X126619000Y-67564000D01*
X126619000Y-67564000D02*
X133731000Y-67564000D01*
X133731000Y-67564000D02*
X133731000Y-69596000D01*
X130810000Y-34290000D02*
X130810000Y-36195000D01*
X130810000Y-42545000D02*
X130810000Y-44450000D01*
X132080000Y-41910000D02*
X129540000Y-41910000D01*
X129540000Y-36195000D02*
X129540000Y-42545000D01*
X132080000Y-36195000D02*
X129540000Y-36195000D01*
X132080000Y-42545000D02*
X129540000Y-42545000D01*
X132080000Y-36195000D02*
X132080000Y-42545000D01*
X114300000Y-44450000D02*
X114300000Y-42545000D01*
X114300000Y-36195000D02*
X114300000Y-34290000D01*
X113030000Y-36830000D02*
X115570000Y-36830000D01*
X115570000Y-42545000D02*
X115570000Y-36195000D01*
X113030000Y-42545000D02*
X115570000Y-42545000D01*
X113030000Y-36195000D02*
X115570000Y-36195000D01*
X113030000Y-42545000D02*
X113030000Y-36195000D01*
X121155000Y-44320000D02*
X123955000Y-44320000D01*
X123955000Y-47120000D02*
G75*
G03X123955000Y-44320000I-1400000J1400000D01*
G01*
X121155000Y-47120000D02*
G75*
G03X123955000Y-47120000I1400000J1400000D01*
G01*
X121155000Y-44320000D02*
G75*
G03X121155000Y-47120000I1400000J-1400000D01*
G01*
X107950000Y-45212000D02*
G75*
G03X108712000Y-44450000I0J762000D01*
G01*
X107188000Y-44450000D02*
G75*
G03X107950000Y-45212000I762000J0D01*
G01*
X110490000Y-44450000D02*
X110490000Y-54610000D01*
X110490000Y-54610000D02*
X105410000Y-54610000D01*
X105410000Y-54610000D02*
X105410000Y-44450000D01*
X105410000Y-44450000D02*
X110490000Y-44450000D01*
D14*
X125730000Y-34925000D02*
X123190000Y-34925000D01*
X128550000Y-35205000D02*
X127000000Y-35205000D01*
X125730000Y-34925000D02*
X125730000Y-32385000D01*
X127000000Y-32105000D02*
X128550000Y-32105000D01*
X128550000Y-32105000D02*
X128550000Y-35205000D01*
X125730000Y-32385000D02*
X123190000Y-32385000D01*
X123190000Y-32385000D02*
X123190000Y-34925000D01*
X119380000Y-34925000D02*
X116840000Y-34925000D01*
X122200000Y-35205000D02*
X120650000Y-35205000D01*
X119380000Y-34925000D02*
X119380000Y-32385000D01*
X120650000Y-32105000D02*
X122200000Y-32105000D01*
X122200000Y-32105000D02*
X122200000Y-35205000D01*
X119380000Y-32385000D02*
X116840000Y-32385000D01*
X116840000Y-32385000D02*
X116840000Y-34925000D01*
X110490000Y-78105000D02*
X113030000Y-78105000D01*
X107670000Y-77825000D02*
X109220000Y-77825000D01*
X110490000Y-78105000D02*
X110490000Y-80645000D01*
X109220000Y-80925000D02*
X107670000Y-80925000D01*
X107670000Y-80925000D02*
X107670000Y-77825000D01*
X110490000Y-80645000D02*
X113030000Y-80645000D01*
X113030000Y-80645000D02*
X113030000Y-78105000D01*
X98425000Y-46990000D02*
X98425000Y-54610000D01*
X100965000Y-46990000D02*
X100965000Y-54610000D01*
X101245000Y-44170000D02*
X101245000Y-45720000D01*
X98425000Y-54610000D02*
X100965000Y-54610000D01*
X100965000Y-46990000D02*
X98425000Y-46990000D01*
X98145000Y-45720000D02*
X98145000Y-44170000D01*
X98145000Y-44170000D02*
X101245000Y-44170000D01*
D15*
X127635000Y-71120000D02*
X127635000Y-70485000D01*
X127635000Y-70485000D02*
X137795000Y-70485000D01*
X137795000Y-70485000D02*
X137795000Y-71120000D01*
X127635000Y-74930000D02*
X127635000Y-71120000D01*
X127635000Y-71120000D02*
X137795000Y-71120000D01*
X137795000Y-71120000D02*
X137795000Y-74930000D01*
X137795000Y-74930000D02*
X127635000Y-74930000D01*
X100330000Y-68580000D02*
X101346000Y-68580000D01*
X101346000Y-68580000D02*
X101346000Y-67564000D01*
X101346000Y-67564000D02*
X109474000Y-67564000D01*
X109474000Y-67564000D02*
X109474000Y-69596000D01*
X109474000Y-69596000D02*
X101346000Y-69596000D01*
X101346000Y-69596000D02*
X101346000Y-68580000D01*
X110490000Y-68580000D02*
X109474000Y-68580000D01*
X110490000Y-71120000D02*
X109474000Y-71120000D01*
X109474000Y-71120000D02*
X109474000Y-72136000D01*
X109474000Y-72136000D02*
X101346000Y-72136000D01*
X101346000Y-72136000D02*
X101346000Y-70104000D01*
X101346000Y-70104000D02*
X109474000Y-70104000D01*
X109474000Y-70104000D02*
X109474000Y-71120000D01*
X100330000Y-71120000D02*
X101346000Y-71120000D01*
X114935000Y-69215000D02*
X115951000Y-69215000D01*
X115951000Y-69215000D02*
X115951000Y-68199000D01*
X115951000Y-68199000D02*
X124079000Y-68199000D01*
X124079000Y-68199000D02*
X124079000Y-70231000D01*
X124079000Y-70231000D02*
X115951000Y-70231000D01*
X115951000Y-70231000D02*
X115951000Y-69215000D01*
X125095000Y-69215000D02*
X124079000Y-69215000D01*
X124460000Y-60960000D02*
X124460000Y-59944000D01*
X124460000Y-59944000D02*
X123444000Y-59944000D01*
X123444000Y-59944000D02*
X123444000Y-51816000D01*
X123444000Y-51816000D02*
X125476000Y-51816000D01*
X125476000Y-51816000D02*
X125476000Y-59944000D01*
X125476000Y-59944000D02*
X124460000Y-59944000D01*
X124460000Y-50800000D02*
X124460000Y-51816000D01*
X125095000Y-74295000D02*
X124079000Y-74295000D01*
X124079000Y-74295000D02*
X124079000Y-75311000D01*
X124079000Y-75311000D02*
X115951000Y-75311000D01*
X115951000Y-75311000D02*
X115951000Y-73279000D01*
X115951000Y-73279000D02*
X124079000Y-73279000D01*
X124079000Y-73279000D02*
X124079000Y-74295000D01*
X114935000Y-74295000D02*
X115951000Y-74295000D01*
X125095000Y-71755000D02*
X124079000Y-71755000D01*
X124079000Y-71755000D02*
X124079000Y-72771000D01*
X124079000Y-72771000D02*
X115951000Y-72771000D01*
X115951000Y-72771000D02*
X115951000Y-70739000D01*
X115951000Y-70739000D02*
X124079000Y-70739000D01*
X124079000Y-70739000D02*
X124079000Y-71755000D01*
X114935000Y-71755000D02*
X115951000Y-71755000D01*
X121920000Y-60960000D02*
X121920000Y-59944000D01*
X121920000Y-59944000D02*
X120904000Y-59944000D01*
X120904000Y-59944000D02*
X120904000Y-51816000D01*
X120904000Y-51816000D02*
X122936000Y-51816000D01*
X122936000Y-51816000D02*
X122936000Y-59944000D01*
X122936000Y-59944000D02*
X121920000Y-59944000D01*
X121920000Y-50800000D02*
X121920000Y-51816000D01*
X137795000Y-76835000D02*
X136779000Y-76835000D01*
X136779000Y-76835000D02*
X136779000Y-77851000D01*
X136779000Y-77851000D02*
X128651000Y-77851000D01*
X128651000Y-77851000D02*
X128651000Y-75819000D01*
X128651000Y-75819000D02*
X136779000Y-75819000D01*
X136779000Y-75819000D02*
X136779000Y-76835000D01*
X127635000Y-76835000D02*
X128651000Y-76835000D01*
X125095000Y-76835000D02*
X124079000Y-76835000D01*
X124079000Y-76835000D02*
X124079000Y-77851000D01*
X124079000Y-77851000D02*
X115951000Y-77851000D01*
X115951000Y-77851000D02*
X115951000Y-75819000D01*
X115951000Y-75819000D02*
X124079000Y-75819000D01*
X124079000Y-75819000D02*
X124079000Y-76835000D01*
X114935000Y-76835000D02*
X115951000Y-76835000D01*
X137795000Y-79375000D02*
X136779000Y-79375000D01*
X136779000Y-79375000D02*
X136779000Y-80391000D01*
X136779000Y-80391000D02*
X128651000Y-80391000D01*
X128651000Y-80391000D02*
X128651000Y-78359000D01*
X128651000Y-78359000D02*
X136779000Y-78359000D01*
X136779000Y-78359000D02*
X136779000Y-79375000D01*
X127635000Y-79375000D02*
X128651000Y-79375000D01*
X125095000Y-79375000D02*
X124079000Y-79375000D01*
X124079000Y-79375000D02*
X124079000Y-80391000D01*
X124079000Y-80391000D02*
X115951000Y-80391000D01*
X115951000Y-80391000D02*
X115951000Y-78359000D01*
X115951000Y-78359000D02*
X124079000Y-78359000D01*
X124079000Y-78359000D02*
X124079000Y-79375000D01*
X114935000Y-79375000D02*
X115951000Y-79375000D01*
X117475000Y-41910000D02*
X118491000Y-41910000D01*
X118491000Y-41910000D02*
X118491000Y-40894000D01*
X118491000Y-40894000D02*
X126619000Y-40894000D01*
X126619000Y-40894000D02*
X126619000Y-42926000D01*
X126619000Y-42926000D02*
X118491000Y-42926000D01*
X118491000Y-42926000D02*
X118491000Y-41910000D01*
X127635000Y-41910000D02*
X126619000Y-41910000D01*
X142875000Y-59690000D02*
X142240000Y-59690000D01*
X142240000Y-59690000D02*
X142240000Y-49530000D01*
X142240000Y-49530000D02*
X142875000Y-49530000D01*
X146685000Y-59690000D02*
X142875000Y-59690000D01*
X142875000Y-59690000D02*
X142875000Y-49530000D01*
X142875000Y-49530000D02*
X146685000Y-49530000D01*
X146685000Y-49530000D02*
X146685000Y-59690000D01*
X108458000Y-60960000D02*
G75*
G03X109220000Y-61722000I762000J0D01*
G01*
X109220000Y-60198000D02*
G75*
G03X108458000Y-60960000I0J-762000D01*
G01*
X109220000Y-63500000D02*
X99060000Y-63500000D01*
X99060000Y-63500000D02*
X99060000Y-58420000D01*
X99060000Y-58420000D02*
X109220000Y-58420000D01*
X109220000Y-58420000D02*
X109220000Y-63500000D01*
X133350000Y-51562000D02*
G75*
G03X134112000Y-50800000I0J762000D01*
G01*
X132588000Y-50800000D02*
G75*
G03X133350000Y-51562000I762000J0D01*
G01*
X135890000Y-50800000D02*
X135890000Y-60960000D01*
X135890000Y-60960000D02*
X130810000Y-60960000D01*
X130810000Y-60960000D02*
X130810000Y-50800000D01*
X130810000Y-50800000D02*
X135890000Y-50800000D01*
D16*
G36*
X135948420Y-44340780D02*
X135968740Y-44330620D01*
X136017000Y-44300140D01*
X136083040Y-44256960D01*
X136161780Y-44203620D01*
X136240520Y-44150280D01*
X136306560Y-44107100D01*
X136352280Y-44076620D01*
X136370060Y-44066460D01*
X136380220Y-44069000D01*
X136418320Y-44089320D01*
X136474200Y-44117260D01*
X136504680Y-44132500D01*
X136555480Y-44155360D01*
X136580880Y-44160440D01*
X136583420Y-44152820D01*
X136603740Y-44114720D01*
X136631680Y-44048680D01*
X136669780Y-43962320D01*
X136712960Y-43860720D01*
X136758680Y-43751500D01*
X136804400Y-43639740D01*
X136850120Y-43533060D01*
X136888220Y-43436540D01*
X136921240Y-43360340D01*
X136941560Y-43304460D01*
X136949180Y-43281600D01*
X136946640Y-43276520D01*
X136921240Y-43253660D01*
X136878060Y-43220640D01*
X136781540Y-43141900D01*
X136690100Y-43025060D01*
X136631680Y-42892980D01*
X136613900Y-42745660D01*
X136629140Y-42611040D01*
X136682480Y-42481500D01*
X136773920Y-42362120D01*
X136885680Y-42275760D01*
X137015220Y-42219880D01*
X137160000Y-42202100D01*
X137299700Y-42217340D01*
X137431780Y-42270680D01*
X137551160Y-42359580D01*
X137599420Y-42418000D01*
X137668000Y-42537380D01*
X137708640Y-42664380D01*
X137711180Y-42694860D01*
X137706100Y-42837100D01*
X137665460Y-42971720D01*
X137591800Y-43091100D01*
X137487660Y-43190160D01*
X137474960Y-43200320D01*
X137426700Y-43235880D01*
X137396220Y-43258740D01*
X137370820Y-43279060D01*
X137548620Y-43710860D01*
X137576560Y-43779440D01*
X137627360Y-43896280D01*
X137670540Y-43997880D01*
X137703560Y-44079160D01*
X137728960Y-44132500D01*
X137739120Y-44155360D01*
X137739120Y-44155360D01*
X137754360Y-44157900D01*
X137787380Y-44145200D01*
X137848340Y-44117260D01*
X137888980Y-44096940D01*
X137934700Y-44074080D01*
X137955020Y-44066460D01*
X137972800Y-44076620D01*
X138015980Y-44104560D01*
X138079480Y-44147740D01*
X138155680Y-44198540D01*
X138229340Y-44249340D01*
X138297920Y-44295060D01*
X138346180Y-44325540D01*
X138371580Y-44338240D01*
X138374120Y-44338240D01*
X138394440Y-44325540D01*
X138435080Y-44295060D01*
X138493500Y-44239180D01*
X138574780Y-44157900D01*
X138587480Y-44145200D01*
X138656060Y-44074080D01*
X138711940Y-44015660D01*
X138750040Y-43975020D01*
X138762740Y-43957240D01*
X138762740Y-43957240D01*
X138750040Y-43931840D01*
X138719560Y-43883580D01*
X138673840Y-43815000D01*
X138620500Y-43736260D01*
X138478260Y-43527980D01*
X138557000Y-43332400D01*
X138579860Y-43273980D01*
X138610340Y-43200320D01*
X138633200Y-43149520D01*
X138645900Y-43126660D01*
X138666220Y-43119040D01*
X138719560Y-43106340D01*
X138798300Y-43088560D01*
X138889740Y-43073320D01*
X138978640Y-43055540D01*
X139057380Y-43040300D01*
X139115800Y-43030140D01*
X139141200Y-43025060D01*
X139146280Y-43019980D01*
X139151360Y-43007280D01*
X139156440Y-42981880D01*
X139156440Y-42933620D01*
X139158980Y-42857420D01*
X139158980Y-42745660D01*
X139158980Y-42735500D01*
X139156440Y-42628820D01*
X139156440Y-42545000D01*
X139153900Y-42491660D01*
X139148820Y-42471340D01*
X139148820Y-42471340D01*
X139123420Y-42463720D01*
X139067540Y-42453560D01*
X138988800Y-42435780D01*
X138892280Y-42418000D01*
X138887200Y-42418000D01*
X138793220Y-42400220D01*
X138714480Y-42382440D01*
X138658600Y-42369740D01*
X138635740Y-42362120D01*
X138630660Y-42357040D01*
X138610340Y-42318940D01*
X138582400Y-42260520D01*
X138551920Y-42189400D01*
X138521440Y-42115740D01*
X138493500Y-42047160D01*
X138475720Y-41998900D01*
X138470640Y-41976040D01*
X138470640Y-41976040D01*
X138485880Y-41953180D01*
X138518900Y-41902380D01*
X138564620Y-41836340D01*
X138620500Y-41755060D01*
X138623040Y-41747440D01*
X138678920Y-41668700D01*
X138722100Y-41600120D01*
X138752580Y-41551860D01*
X138762740Y-41531540D01*
X138762740Y-41529000D01*
X138744960Y-41506140D01*
X138704320Y-41460420D01*
X138645900Y-41399460D01*
X138574780Y-41328340D01*
X138551920Y-41308020D01*
X138475720Y-41231820D01*
X138422380Y-41181020D01*
X138386820Y-41155620D01*
X138371580Y-41148000D01*
X138371580Y-41150540D01*
X138346180Y-41163240D01*
X138295380Y-41196260D01*
X138226800Y-41244520D01*
X138145520Y-41297860D01*
X138140440Y-41302940D01*
X138061700Y-41356280D01*
X137995660Y-41402000D01*
X137947400Y-41432480D01*
X137927080Y-41445180D01*
X137922000Y-41445180D01*
X137891520Y-41435020D01*
X137833100Y-41417240D01*
X137764520Y-41389300D01*
X137690860Y-41358820D01*
X137622280Y-41330880D01*
X137571480Y-41308020D01*
X137548620Y-41295320D01*
X137548620Y-41292780D01*
X137538460Y-41264840D01*
X137525760Y-41203880D01*
X137507980Y-41122600D01*
X137490200Y-41023540D01*
X137487660Y-41008300D01*
X137469880Y-40914320D01*
X137454640Y-40835580D01*
X137441940Y-40779700D01*
X137436860Y-40756840D01*
X137424160Y-40754300D01*
X137375900Y-40751760D01*
X137304780Y-40749220D01*
X137218420Y-40749220D01*
X137129520Y-40749220D01*
X137043160Y-40751760D01*
X136966960Y-40754300D01*
X136913620Y-40756840D01*
X136890760Y-40761920D01*
X136888220Y-40764460D01*
X136880600Y-40792400D01*
X136867900Y-40853360D01*
X136850120Y-40934640D01*
X136832340Y-41033700D01*
X136829800Y-41051480D01*
X136812020Y-41145460D01*
X136794240Y-41224200D01*
X136784080Y-41277540D01*
X136776460Y-41297860D01*
X136768840Y-41302940D01*
X136730740Y-41320720D01*
X136667240Y-41346120D01*
X136585960Y-41379140D01*
X136403080Y-41452800D01*
X136179560Y-41297860D01*
X136159240Y-41285160D01*
X136077960Y-41229280D01*
X136011920Y-41186100D01*
X135966200Y-41155620D01*
X135945880Y-41145460D01*
X135945880Y-41145460D01*
X135923020Y-41165780D01*
X135877300Y-41206420D01*
X135816340Y-41267380D01*
X135747760Y-41335960D01*
X135694420Y-41389300D01*
X135633460Y-41452800D01*
X135592820Y-41493440D01*
X135572500Y-41521380D01*
X135564880Y-41539160D01*
X135567420Y-41549320D01*
X135580120Y-41572180D01*
X135613140Y-41620440D01*
X135658860Y-41689020D01*
X135714740Y-41767760D01*
X135760460Y-41836340D01*
X135808720Y-41910000D01*
X135839200Y-41963340D01*
X135851900Y-41991280D01*
X135849360Y-42001440D01*
X135831580Y-42044620D01*
X135806180Y-42113200D01*
X135773160Y-42191940D01*
X135694420Y-42369740D01*
X135577580Y-42390060D01*
X135506460Y-42405300D01*
X135407400Y-42423080D01*
X135313420Y-42440860D01*
X135166100Y-42471340D01*
X135161020Y-43009820D01*
X135183880Y-43019980D01*
X135206740Y-43027600D01*
X135260080Y-43037760D01*
X135338820Y-43053000D01*
X135430260Y-43070780D01*
X135509000Y-43086020D01*
X135587740Y-43101260D01*
X135643620Y-43111420D01*
X135669020Y-43116500D01*
X135676640Y-43126660D01*
X135696960Y-43164760D01*
X135724900Y-43225720D01*
X135755380Y-43299380D01*
X135785860Y-43373040D01*
X135813800Y-43444160D01*
X135834120Y-43497500D01*
X135841740Y-43525440D01*
X135831580Y-43545760D01*
X135801100Y-43591480D01*
X135757920Y-43657520D01*
X135704580Y-43736260D01*
X135648700Y-43815000D01*
X135605520Y-43883580D01*
X135572500Y-43931840D01*
X135559800Y-43952160D01*
X135567420Y-43967400D01*
X135597900Y-44005500D01*
X135656320Y-44066460D01*
X135745220Y-44155360D01*
X135760460Y-44168060D01*
X135829040Y-44236640D01*
X135890000Y-44289980D01*
X135930640Y-44328080D01*
X135948420Y-44340780D01*
X135948420Y-44340780D01*
G37*
X135948420Y-44340780D02*
X135968740Y-44330620D01*
X136017000Y-44300140D01*
X136083040Y-44256960D01*
X136161780Y-44203620D01*
X136240520Y-44150280D01*
X136306560Y-44107100D01*
X136352280Y-44076620D01*
X136370060Y-44066460D01*
X136380220Y-44069000D01*
X136418320Y-44089320D01*
X136474200Y-44117260D01*
X136504680Y-44132500D01*
X136555480Y-44155360D01*
X136580880Y-44160440D01*
X136583420Y-44152820D01*
X136603740Y-44114720D01*
X136631680Y-44048680D01*
X136669780Y-43962320D01*
X136712960Y-43860720D01*
X136758680Y-43751500D01*
X136804400Y-43639740D01*
X136850120Y-43533060D01*
X136888220Y-43436540D01*
X136921240Y-43360340D01*
X136941560Y-43304460D01*
X136949180Y-43281600D01*
X136946640Y-43276520D01*
X136921240Y-43253660D01*
X136878060Y-43220640D01*
X136781540Y-43141900D01*
X136690100Y-43025060D01*
X136631680Y-42892980D01*
X136613900Y-42745660D01*
X136629140Y-42611040D01*
X136682480Y-42481500D01*
X136773920Y-42362120D01*
X136885680Y-42275760D01*
X137015220Y-42219880D01*
X137160000Y-42202100D01*
X137299700Y-42217340D01*
X137431780Y-42270680D01*
X137551160Y-42359580D01*
X137599420Y-42418000D01*
X137668000Y-42537380D01*
X137708640Y-42664380D01*
X137711180Y-42694860D01*
X137706100Y-42837100D01*
X137665460Y-42971720D01*
X137591800Y-43091100D01*
X137487660Y-43190160D01*
X137474960Y-43200320D01*
X137426700Y-43235880D01*
X137396220Y-43258740D01*
X137370820Y-43279060D01*
X137548620Y-43710860D01*
X137576560Y-43779440D01*
X137627360Y-43896280D01*
X137670540Y-43997880D01*
X137703560Y-44079160D01*
X137728960Y-44132500D01*
X137739120Y-44155360D01*
X137739120Y-44155360D01*
X137754360Y-44157900D01*
X137787380Y-44145200D01*
X137848340Y-44117260D01*
X137888980Y-44096940D01*
X137934700Y-44074080D01*
X137955020Y-44066460D01*
X137972800Y-44076620D01*
X138015980Y-44104560D01*
X138079480Y-44147740D01*
X138155680Y-44198540D01*
X138229340Y-44249340D01*
X138297920Y-44295060D01*
X138346180Y-44325540D01*
X138371580Y-44338240D01*
X138374120Y-44338240D01*
X138394440Y-44325540D01*
X138435080Y-44295060D01*
X138493500Y-44239180D01*
X138574780Y-44157900D01*
X138587480Y-44145200D01*
X138656060Y-44074080D01*
X138711940Y-44015660D01*
X138750040Y-43975020D01*
X138762740Y-43957240D01*
X138762740Y-43957240D01*
X138750040Y-43931840D01*
X138719560Y-43883580D01*
X138673840Y-43815000D01*
X138620500Y-43736260D01*
X138478260Y-43527980D01*
X138557000Y-43332400D01*
X138579860Y-43273980D01*
X138610340Y-43200320D01*
X138633200Y-43149520D01*
X138645900Y-43126660D01*
X138666220Y-43119040D01*
X138719560Y-43106340D01*
X138798300Y-43088560D01*
X138889740Y-43073320D01*
X138978640Y-43055540D01*
X139057380Y-43040300D01*
X139115800Y-43030140D01*
X139141200Y-43025060D01*
X139146280Y-43019980D01*
X139151360Y-43007280D01*
X139156440Y-42981880D01*
X139156440Y-42933620D01*
X139158980Y-42857420D01*
X139158980Y-42745660D01*
X139158980Y-42735500D01*
X139156440Y-42628820D01*
X139156440Y-42545000D01*
X139153900Y-42491660D01*
X139148820Y-42471340D01*
X139148820Y-42471340D01*
X139123420Y-42463720D01*
X139067540Y-42453560D01*
X138988800Y-42435780D01*
X138892280Y-42418000D01*
X138887200Y-42418000D01*
X138793220Y-42400220D01*
X138714480Y-42382440D01*
X138658600Y-42369740D01*
X138635740Y-42362120D01*
X138630660Y-42357040D01*
X138610340Y-42318940D01*
X138582400Y-42260520D01*
X138551920Y-42189400D01*
X138521440Y-42115740D01*
X138493500Y-42047160D01*
X138475720Y-41998900D01*
X138470640Y-41976040D01*
X138470640Y-41976040D01*
X138485880Y-41953180D01*
X138518900Y-41902380D01*
X138564620Y-41836340D01*
X138620500Y-41755060D01*
X138623040Y-41747440D01*
X138678920Y-41668700D01*
X138722100Y-41600120D01*
X138752580Y-41551860D01*
X138762740Y-41531540D01*
X138762740Y-41529000D01*
X138744960Y-41506140D01*
X138704320Y-41460420D01*
X138645900Y-41399460D01*
X138574780Y-41328340D01*
X138551920Y-41308020D01*
X138475720Y-41231820D01*
X138422380Y-41181020D01*
X138386820Y-41155620D01*
X138371580Y-41148000D01*
X138371580Y-41150540D01*
X138346180Y-41163240D01*
X138295380Y-41196260D01*
X138226800Y-41244520D01*
X138145520Y-41297860D01*
X138140440Y-41302940D01*
X138061700Y-41356280D01*
X137995660Y-41402000D01*
X137947400Y-41432480D01*
X137927080Y-41445180D01*
X137922000Y-41445180D01*
X137891520Y-41435020D01*
X137833100Y-41417240D01*
X137764520Y-41389300D01*
X137690860Y-41358820D01*
X137622280Y-41330880D01*
X137571480Y-41308020D01*
X137548620Y-41295320D01*
X137548620Y-41292780D01*
X137538460Y-41264840D01*
X137525760Y-41203880D01*
X137507980Y-41122600D01*
X137490200Y-41023540D01*
X137487660Y-41008300D01*
X137469880Y-40914320D01*
X137454640Y-40835580D01*
X137441940Y-40779700D01*
X137436860Y-40756840D01*
X137424160Y-40754300D01*
X137375900Y-40751760D01*
X137304780Y-40749220D01*
X137218420Y-40749220D01*
X137129520Y-40749220D01*
X137043160Y-40751760D01*
X136966960Y-40754300D01*
X136913620Y-40756840D01*
X136890760Y-40761920D01*
X136888220Y-40764460D01*
X136880600Y-40792400D01*
X136867900Y-40853360D01*
X136850120Y-40934640D01*
X136832340Y-41033700D01*
X136829800Y-41051480D01*
X136812020Y-41145460D01*
X136794240Y-41224200D01*
X136784080Y-41277540D01*
X136776460Y-41297860D01*
X136768840Y-41302940D01*
X136730740Y-41320720D01*
X136667240Y-41346120D01*
X136585960Y-41379140D01*
X136403080Y-41452800D01*
X136179560Y-41297860D01*
X136159240Y-41285160D01*
X136077960Y-41229280D01*
X136011920Y-41186100D01*
X135966200Y-41155620D01*
X135945880Y-41145460D01*
X135945880Y-41145460D01*
X135923020Y-41165780D01*
X135877300Y-41206420D01*
X135816340Y-41267380D01*
X135747760Y-41335960D01*
X135694420Y-41389300D01*
X135633460Y-41452800D01*
X135592820Y-41493440D01*
X135572500Y-41521380D01*
X135564880Y-41539160D01*
X135567420Y-41549320D01*
X135580120Y-41572180D01*
X135613140Y-41620440D01*
X135658860Y-41689020D01*
X135714740Y-41767760D01*
X135760460Y-41836340D01*
X135808720Y-41910000D01*
X135839200Y-41963340D01*
X135851900Y-41991280D01*
X135849360Y-42001440D01*
X135831580Y-42044620D01*
X135806180Y-42113200D01*
X135773160Y-42191940D01*
X135694420Y-42369740D01*
X135577580Y-42390060D01*
X135506460Y-42405300D01*
X135407400Y-42423080D01*
X135313420Y-42440860D01*
X135166100Y-42471340D01*
X135161020Y-43009820D01*
X135183880Y-43019980D01*
X135206740Y-43027600D01*
X135260080Y-43037760D01*
X135338820Y-43053000D01*
X135430260Y-43070780D01*
X135509000Y-43086020D01*
X135587740Y-43101260D01*
X135643620Y-43111420D01*
X135669020Y-43116500D01*
X135676640Y-43126660D01*
X135696960Y-43164760D01*
X135724900Y-43225720D01*
X135755380Y-43299380D01*
X135785860Y-43373040D01*
X135813800Y-43444160D01*
X135834120Y-43497500D01*
X135841740Y-43525440D01*
X135831580Y-43545760D01*
X135801100Y-43591480D01*
X135757920Y-43657520D01*
X135704580Y-43736260D01*
X135648700Y-43815000D01*
X135605520Y-43883580D01*
X135572500Y-43931840D01*
X135559800Y-43952160D01*
X135567420Y-43967400D01*
X135597900Y-44005500D01*
X135656320Y-44066460D01*
X135745220Y-44155360D01*
X135760460Y-44168060D01*
X135829040Y-44236640D01*
X135890000Y-44289980D01*
X135930640Y-44328080D01*
X135948420Y-44340780D01*
D11*
X105304167Y-40231786D02*
X105273929Y-40262024D01*
X105183214Y-40292262D01*
X105122738Y-40292262D01*
X105032024Y-40262024D01*
X104971548Y-40201548D01*
X104941309Y-40141071D01*
X104911071Y-40020119D01*
X104911071Y-39929405D01*
X104941309Y-39808452D01*
X104971548Y-39747976D01*
X105032024Y-39687500D01*
X105122738Y-39657262D01*
X105183214Y-39657262D01*
X105273929Y-39687500D01*
X105304167Y-39717738D01*
X105908929Y-40292262D02*
X105546071Y-40292262D01*
X105727500Y-40292262D02*
X105727500Y-39657262D01*
X105667024Y-39747976D01*
X105606548Y-39808452D01*
X105546071Y-39838690D01*
X106906786Y-39657262D02*
X106967262Y-39657262D01*
X107027738Y-39687500D01*
X107057976Y-39717738D01*
X107088214Y-39778214D01*
X107118453Y-39899167D01*
X107118453Y-40050357D01*
X107088214Y-40171310D01*
X107057976Y-40231786D01*
X107027738Y-40262024D01*
X106967262Y-40292262D01*
X106906786Y-40292262D01*
X106846310Y-40262024D01*
X106816072Y-40231786D01*
X106785833Y-40171310D01*
X106755595Y-40050357D01*
X106755595Y-39899167D01*
X106785833Y-39778214D01*
X106816072Y-39717738D01*
X106846310Y-39687500D01*
X106906786Y-39657262D01*
X107390595Y-40231786D02*
X107420834Y-40262024D01*
X107390595Y-40292262D01*
X107360357Y-40262024D01*
X107390595Y-40231786D01*
X107390595Y-40292262D01*
X108025596Y-40292262D02*
X107662738Y-40292262D01*
X107844167Y-40292262D02*
X107844167Y-39657262D01*
X107783691Y-39747976D01*
X107723215Y-39808452D01*
X107662738Y-39838690D01*
X108569881Y-39868929D02*
X108569881Y-40292262D01*
X108297738Y-39868929D02*
X108297738Y-40201548D01*
X108327977Y-40262024D01*
X108388453Y-40292262D01*
X108479167Y-40292262D01*
X108539643Y-40262024D01*
X108569881Y-40231786D01*
X109083929Y-39959643D02*
X108872262Y-39959643D01*
X108872262Y-40292262D02*
X108872262Y-39657262D01*
X109174643Y-39657262D01*
X144674167Y-69441786D02*
X144643929Y-69472024D01*
X144553214Y-69502262D01*
X144492738Y-69502262D01*
X144402024Y-69472024D01*
X144341548Y-69411548D01*
X144311309Y-69351071D01*
X144281071Y-69230119D01*
X144281071Y-69139405D01*
X144311309Y-69018452D01*
X144341548Y-68957976D01*
X144402024Y-68897500D01*
X144492738Y-68867262D01*
X144553214Y-68867262D01*
X144643929Y-68897500D01*
X144674167Y-68927738D01*
X144916071Y-68927738D02*
X144946309Y-68897500D01*
X145006786Y-68867262D01*
X145157976Y-68867262D01*
X145218452Y-68897500D01*
X145248690Y-68927738D01*
X145278929Y-68988214D01*
X145278929Y-69048690D01*
X145248690Y-69139405D01*
X144885833Y-69502262D01*
X145278929Y-69502262D01*
X143736786Y-70137262D02*
X143797262Y-70137262D01*
X143857738Y-70167500D01*
X143887976Y-70197738D01*
X143918214Y-70258214D01*
X143948453Y-70379167D01*
X143948453Y-70530357D01*
X143918214Y-70651310D01*
X143887976Y-70711786D01*
X143857738Y-70742024D01*
X143797262Y-70772262D01*
X143736786Y-70772262D01*
X143676310Y-70742024D01*
X143646072Y-70711786D01*
X143615833Y-70651310D01*
X143585595Y-70530357D01*
X143585595Y-70379167D01*
X143615833Y-70258214D01*
X143646072Y-70197738D01*
X143676310Y-70167500D01*
X143736786Y-70137262D01*
X144220595Y-70711786D02*
X144250834Y-70742024D01*
X144220595Y-70772262D01*
X144190357Y-70742024D01*
X144220595Y-70711786D01*
X144220595Y-70772262D01*
X144855596Y-70772262D02*
X144492738Y-70772262D01*
X144674167Y-70772262D02*
X144674167Y-70137262D01*
X144613691Y-70227976D01*
X144553215Y-70288452D01*
X144492738Y-70318690D01*
X145399881Y-70348929D02*
X145399881Y-70772262D01*
X145127738Y-70348929D02*
X145127738Y-70681548D01*
X145157977Y-70742024D01*
X145218453Y-70772262D01*
X145309167Y-70772262D01*
X145369643Y-70742024D01*
X145399881Y-70711786D01*
X145913929Y-70439643D02*
X145702262Y-70439643D01*
X145702262Y-70772262D02*
X145702262Y-70137262D01*
X146004643Y-70137262D01*
X143101786Y-47730833D02*
X143132024Y-47761071D01*
X143162262Y-47851786D01*
X143162262Y-47912262D01*
X143132024Y-48002976D01*
X143071548Y-48063452D01*
X143011071Y-48093691D01*
X142890119Y-48123929D01*
X142799405Y-48123929D01*
X142678452Y-48093691D01*
X142617976Y-48063452D01*
X142557500Y-48002976D01*
X142527262Y-47912262D01*
X142527262Y-47851786D01*
X142557500Y-47761071D01*
X142587738Y-47730833D01*
X142527262Y-47519167D02*
X142527262Y-47126071D01*
X142769167Y-47337738D01*
X142769167Y-47247024D01*
X142799405Y-47186548D01*
X142829643Y-47156310D01*
X142890119Y-47126071D01*
X143041310Y-47126071D01*
X143101786Y-47156310D01*
X143132024Y-47186548D01*
X143162262Y-47247024D01*
X143162262Y-47428452D01*
X143132024Y-47488929D01*
X143101786Y-47519167D01*
X142527262Y-46128214D02*
X142527262Y-46067738D01*
X142557500Y-46007262D01*
X142587738Y-45977024D01*
X142648214Y-45946786D01*
X142769167Y-45916547D01*
X142920357Y-45916547D01*
X143041310Y-45946786D01*
X143101786Y-45977024D01*
X143132024Y-46007262D01*
X143162262Y-46067738D01*
X143162262Y-46128214D01*
X143132024Y-46188690D01*
X143101786Y-46218928D01*
X143041310Y-46249167D01*
X142920357Y-46279405D01*
X142769167Y-46279405D01*
X142648214Y-46249167D01*
X142587738Y-46218928D01*
X142557500Y-46188690D01*
X142527262Y-46128214D01*
X143101786Y-45644405D02*
X143132024Y-45614166D01*
X143162262Y-45644405D01*
X143132024Y-45674643D01*
X143101786Y-45644405D01*
X143162262Y-45644405D01*
X143162262Y-45009404D02*
X143162262Y-45372262D01*
X143162262Y-45190833D02*
X142527262Y-45190833D01*
X142617976Y-45251309D01*
X142678452Y-45311785D01*
X142708690Y-45372262D01*
X142738929Y-44465119D02*
X143162262Y-44465119D01*
X142738929Y-44737262D02*
X143071548Y-44737262D01*
X143132024Y-44707023D01*
X143162262Y-44646547D01*
X143162262Y-44555833D01*
X143132024Y-44495357D01*
X143101786Y-44465119D01*
X142829643Y-43951071D02*
X142829643Y-44162738D01*
X143162262Y-44162738D02*
X142527262Y-44162738D01*
X142527262Y-43860357D01*
X134719786Y-35665833D02*
X134750024Y-35696071D01*
X134780262Y-35786786D01*
X134780262Y-35847262D01*
X134750024Y-35937976D01*
X134689548Y-35998452D01*
X134629071Y-36028691D01*
X134508119Y-36058929D01*
X134417405Y-36058929D01*
X134296452Y-36028691D01*
X134235976Y-35998452D01*
X134175500Y-35937976D01*
X134145262Y-35847262D01*
X134145262Y-35786786D01*
X134175500Y-35696071D01*
X134205738Y-35665833D01*
X134356929Y-35121548D02*
X134780262Y-35121548D01*
X134115024Y-35272738D02*
X134568595Y-35423929D01*
X134568595Y-35030833D01*
X137701262Y-36542738D02*
X137701262Y-36905596D01*
X137701262Y-36724167D02*
X137066262Y-36724167D01*
X137156976Y-36784643D01*
X137217452Y-36845119D01*
X137247690Y-36905596D01*
X137066262Y-36149643D02*
X137066262Y-36089167D01*
X137096500Y-36028691D01*
X137126738Y-35998453D01*
X137187214Y-35968215D01*
X137308167Y-35937976D01*
X137459357Y-35937976D01*
X137580310Y-35968215D01*
X137640786Y-35998453D01*
X137671024Y-36028691D01*
X137701262Y-36089167D01*
X137701262Y-36149643D01*
X137671024Y-36210119D01*
X137640786Y-36240357D01*
X137580310Y-36270596D01*
X137459357Y-36300834D01*
X137308167Y-36300834D01*
X137187214Y-36270596D01*
X137126738Y-36240357D01*
X137096500Y-36210119D01*
X137066262Y-36149643D01*
X137066262Y-35544881D02*
X137066262Y-35484405D01*
X137096500Y-35423929D01*
X137126738Y-35393691D01*
X137187214Y-35363453D01*
X137308167Y-35333214D01*
X137459357Y-35333214D01*
X137580310Y-35363453D01*
X137640786Y-35393691D01*
X137671024Y-35423929D01*
X137701262Y-35484405D01*
X137701262Y-35544881D01*
X137671024Y-35605357D01*
X137640786Y-35635595D01*
X137580310Y-35665834D01*
X137459357Y-35696072D01*
X137308167Y-35696072D01*
X137187214Y-35665834D01*
X137126738Y-35635595D01*
X137096500Y-35605357D01*
X137066262Y-35544881D01*
X137277929Y-34788929D02*
X137701262Y-34788929D01*
X137277929Y-35061072D02*
X137610548Y-35061072D01*
X137671024Y-35030833D01*
X137701262Y-34970357D01*
X137701262Y-34879643D01*
X137671024Y-34819167D01*
X137640786Y-34788929D01*
X137368643Y-34274881D02*
X137368643Y-34486548D01*
X137701262Y-34486548D02*
X137066262Y-34486548D01*
X137066262Y-34184167D01*
D13*
X134039429Y-38390285D02*
X134039429Y-37809714D01*
X134329714Y-38100000D02*
X133749143Y-38100000D01*
D11*
X110843786Y-35665833D02*
X110874024Y-35696071D01*
X110904262Y-35786786D01*
X110904262Y-35847262D01*
X110874024Y-35937976D01*
X110813548Y-35998452D01*
X110753071Y-36028691D01*
X110632119Y-36058929D01*
X110541405Y-36058929D01*
X110420452Y-36028691D01*
X110359976Y-35998452D01*
X110299500Y-35937976D01*
X110269262Y-35847262D01*
X110269262Y-35786786D01*
X110299500Y-35696071D01*
X110329738Y-35665833D01*
X110269262Y-35091310D02*
X110269262Y-35393691D01*
X110571643Y-35423929D01*
X110541405Y-35393691D01*
X110511167Y-35333214D01*
X110511167Y-35182024D01*
X110541405Y-35121548D01*
X110571643Y-35091310D01*
X110632119Y-35061071D01*
X110783310Y-35061071D01*
X110843786Y-35091310D01*
X110874024Y-35121548D01*
X110904262Y-35182024D01*
X110904262Y-35333214D01*
X110874024Y-35393691D01*
X110843786Y-35423929D01*
X107983262Y-36542738D02*
X107983262Y-36905596D01*
X107983262Y-36724167D02*
X107348262Y-36724167D01*
X107438976Y-36784643D01*
X107499452Y-36845119D01*
X107529690Y-36905596D01*
X107348262Y-36149643D02*
X107348262Y-36089167D01*
X107378500Y-36028691D01*
X107408738Y-35998453D01*
X107469214Y-35968215D01*
X107590167Y-35937976D01*
X107741357Y-35937976D01*
X107862310Y-35968215D01*
X107922786Y-35998453D01*
X107953024Y-36028691D01*
X107983262Y-36089167D01*
X107983262Y-36149643D01*
X107953024Y-36210119D01*
X107922786Y-36240357D01*
X107862310Y-36270596D01*
X107741357Y-36300834D01*
X107590167Y-36300834D01*
X107469214Y-36270596D01*
X107408738Y-36240357D01*
X107378500Y-36210119D01*
X107348262Y-36149643D01*
X107348262Y-35544881D02*
X107348262Y-35484405D01*
X107378500Y-35423929D01*
X107408738Y-35393691D01*
X107469214Y-35363453D01*
X107590167Y-35333214D01*
X107741357Y-35333214D01*
X107862310Y-35363453D01*
X107922786Y-35393691D01*
X107953024Y-35423929D01*
X107983262Y-35484405D01*
X107983262Y-35544881D01*
X107953024Y-35605357D01*
X107922786Y-35635595D01*
X107862310Y-35665834D01*
X107741357Y-35696072D01*
X107590167Y-35696072D01*
X107469214Y-35665834D01*
X107408738Y-35635595D01*
X107378500Y-35605357D01*
X107348262Y-35544881D01*
X107559929Y-34788929D02*
X107983262Y-34788929D01*
X107559929Y-35061072D02*
X107892548Y-35061072D01*
X107953024Y-35030833D01*
X107983262Y-34970357D01*
X107983262Y-34879643D01*
X107953024Y-34819167D01*
X107922786Y-34788929D01*
X107650643Y-34274881D02*
X107650643Y-34486548D01*
X107983262Y-34486548D02*
X107348262Y-34486548D01*
X107348262Y-34184167D01*
D13*
X111179429Y-33310285D02*
X111179429Y-32729714D01*
X111469714Y-33020000D02*
X110889143Y-33020000D01*
D11*
X113891786Y-64240833D02*
X113922024Y-64271071D01*
X113952262Y-64361786D01*
X113952262Y-64422262D01*
X113922024Y-64512976D01*
X113861548Y-64573452D01*
X113801071Y-64603691D01*
X113680119Y-64633929D01*
X113589405Y-64633929D01*
X113468452Y-64603691D01*
X113407976Y-64573452D01*
X113347500Y-64512976D01*
X113317262Y-64422262D01*
X113317262Y-64361786D01*
X113347500Y-64271071D01*
X113377738Y-64240833D01*
X113317262Y-63696548D02*
X113317262Y-63817500D01*
X113347500Y-63877976D01*
X113377738Y-63908214D01*
X113468452Y-63968691D01*
X113589405Y-63998929D01*
X113831310Y-63998929D01*
X113891786Y-63968691D01*
X113922024Y-63938452D01*
X113952262Y-63877976D01*
X113952262Y-63757024D01*
X113922024Y-63696548D01*
X113891786Y-63666310D01*
X113831310Y-63636071D01*
X113680119Y-63636071D01*
X113619643Y-63666310D01*
X113589405Y-63696548D01*
X113559167Y-63757024D01*
X113559167Y-63877976D01*
X113589405Y-63938452D01*
X113619643Y-63968691D01*
X113680119Y-63998929D01*
X113317262Y-62638214D02*
X113317262Y-62577738D01*
X113347500Y-62517262D01*
X113377738Y-62487024D01*
X113438214Y-62456786D01*
X113559167Y-62426547D01*
X113710357Y-62426547D01*
X113831310Y-62456786D01*
X113891786Y-62487024D01*
X113922024Y-62517262D01*
X113952262Y-62577738D01*
X113952262Y-62638214D01*
X113922024Y-62698690D01*
X113891786Y-62728928D01*
X113831310Y-62759167D01*
X113710357Y-62789405D01*
X113559167Y-62789405D01*
X113438214Y-62759167D01*
X113377738Y-62728928D01*
X113347500Y-62698690D01*
X113317262Y-62638214D01*
X113891786Y-62154405D02*
X113922024Y-62124166D01*
X113952262Y-62154405D01*
X113922024Y-62184643D01*
X113891786Y-62154405D01*
X113952262Y-62154405D01*
X113952262Y-61519404D02*
X113952262Y-61882262D01*
X113952262Y-61700833D02*
X113317262Y-61700833D01*
X113407976Y-61761309D01*
X113468452Y-61821785D01*
X113498690Y-61882262D01*
X113528929Y-60975119D02*
X113952262Y-60975119D01*
X113528929Y-61247262D02*
X113861548Y-61247262D01*
X113922024Y-61217023D01*
X113952262Y-61156547D01*
X113952262Y-61065833D01*
X113922024Y-61005357D01*
X113891786Y-60975119D01*
X113619643Y-60461071D02*
X113619643Y-60672738D01*
X113952262Y-60672738D02*
X113317262Y-60672738D01*
X113317262Y-60370357D01*
X132609167Y-46581786D02*
X132578929Y-46612024D01*
X132488214Y-46642262D01*
X132427738Y-46642262D01*
X132337024Y-46612024D01*
X132276548Y-46551548D01*
X132246309Y-46491071D01*
X132216071Y-46370119D01*
X132216071Y-46279405D01*
X132246309Y-46158452D01*
X132276548Y-46097976D01*
X132337024Y-46037500D01*
X132427738Y-46007262D01*
X132488214Y-46007262D01*
X132578929Y-46037500D01*
X132609167Y-46067738D01*
X132820833Y-46007262D02*
X133244167Y-46007262D01*
X132972024Y-46642262D01*
X134211786Y-46007262D02*
X134272262Y-46007262D01*
X134332738Y-46037500D01*
X134362976Y-46067738D01*
X134393214Y-46128214D01*
X134423453Y-46249167D01*
X134423453Y-46400357D01*
X134393214Y-46521310D01*
X134362976Y-46581786D01*
X134332738Y-46612024D01*
X134272262Y-46642262D01*
X134211786Y-46642262D01*
X134151310Y-46612024D01*
X134121072Y-46581786D01*
X134090833Y-46521310D01*
X134060595Y-46400357D01*
X134060595Y-46249167D01*
X134090833Y-46128214D01*
X134121072Y-46067738D01*
X134151310Y-46037500D01*
X134211786Y-46007262D01*
X134695595Y-46581786D02*
X134725834Y-46612024D01*
X134695595Y-46642262D01*
X134665357Y-46612024D01*
X134695595Y-46581786D01*
X134695595Y-46642262D01*
X135330596Y-46642262D02*
X134967738Y-46642262D01*
X135149167Y-46642262D02*
X135149167Y-46007262D01*
X135088691Y-46097976D01*
X135028215Y-46158452D01*
X134967738Y-46188690D01*
X135874881Y-46218929D02*
X135874881Y-46642262D01*
X135602738Y-46218929D02*
X135602738Y-46551548D01*
X135632977Y-46612024D01*
X135693453Y-46642262D01*
X135784167Y-46642262D01*
X135844643Y-46612024D01*
X135874881Y-46581786D01*
X136388929Y-46309643D02*
X136177262Y-46309643D01*
X136177262Y-46642262D02*
X136177262Y-46007262D01*
X136479643Y-46007262D01*
X130704167Y-65631786D02*
X130673929Y-65662024D01*
X130583214Y-65692262D01*
X130522738Y-65692262D01*
X130432024Y-65662024D01*
X130371548Y-65601548D01*
X130341309Y-65541071D01*
X130311071Y-65420119D01*
X130311071Y-65329405D01*
X130341309Y-65208452D01*
X130371548Y-65147976D01*
X130432024Y-65087500D01*
X130522738Y-65057262D01*
X130583214Y-65057262D01*
X130673929Y-65087500D01*
X130704167Y-65117738D01*
X131067024Y-65329405D02*
X131006548Y-65299167D01*
X130976309Y-65268929D01*
X130946071Y-65208452D01*
X130946071Y-65178214D01*
X130976309Y-65117738D01*
X131006548Y-65087500D01*
X131067024Y-65057262D01*
X131187976Y-65057262D01*
X131248452Y-65087500D01*
X131278690Y-65117738D01*
X131308929Y-65178214D01*
X131308929Y-65208452D01*
X131278690Y-65268929D01*
X131248452Y-65299167D01*
X131187976Y-65329405D01*
X131067024Y-65329405D01*
X131006548Y-65359643D01*
X130976309Y-65389881D01*
X130946071Y-65450357D01*
X130946071Y-65571310D01*
X130976309Y-65631786D01*
X131006548Y-65662024D01*
X131067024Y-65692262D01*
X131187976Y-65692262D01*
X131248452Y-65662024D01*
X131278690Y-65631786D01*
X131308929Y-65571310D01*
X131308929Y-65450357D01*
X131278690Y-65389881D01*
X131248452Y-65359643D01*
X131187976Y-65329405D01*
X132306786Y-65057262D02*
X132367262Y-65057262D01*
X132427738Y-65087500D01*
X132457976Y-65117738D01*
X132488214Y-65178214D01*
X132518453Y-65299167D01*
X132518453Y-65450357D01*
X132488214Y-65571310D01*
X132457976Y-65631786D01*
X132427738Y-65662024D01*
X132367262Y-65692262D01*
X132306786Y-65692262D01*
X132246310Y-65662024D01*
X132216072Y-65631786D01*
X132185833Y-65571310D01*
X132155595Y-65450357D01*
X132155595Y-65299167D01*
X132185833Y-65178214D01*
X132216072Y-65117738D01*
X132246310Y-65087500D01*
X132306786Y-65057262D01*
X132790595Y-65631786D02*
X132820834Y-65662024D01*
X132790595Y-65692262D01*
X132760357Y-65662024D01*
X132790595Y-65631786D01*
X132790595Y-65692262D01*
X133425596Y-65692262D02*
X133062738Y-65692262D01*
X133244167Y-65692262D02*
X133244167Y-65057262D01*
X133183691Y-65147976D01*
X133123215Y-65208452D01*
X133062738Y-65238690D01*
X133969881Y-65268929D02*
X133969881Y-65692262D01*
X133697738Y-65268929D02*
X133697738Y-65601548D01*
X133727977Y-65662024D01*
X133788453Y-65692262D01*
X133879167Y-65692262D01*
X133939643Y-65662024D01*
X133969881Y-65631786D01*
X134483929Y-65359643D02*
X134272262Y-65359643D01*
X134272262Y-65692262D02*
X134272262Y-65057262D01*
X134574643Y-65057262D01*
X126894167Y-60678786D02*
X126863929Y-60709024D01*
X126773214Y-60739262D01*
X126712738Y-60739262D01*
X126622024Y-60709024D01*
X126561548Y-60648548D01*
X126531309Y-60588071D01*
X126501071Y-60467119D01*
X126501071Y-60376405D01*
X126531309Y-60255452D01*
X126561548Y-60194976D01*
X126622024Y-60134500D01*
X126712738Y-60104262D01*
X126773214Y-60104262D01*
X126863929Y-60134500D01*
X126894167Y-60164738D01*
X127196548Y-60739262D02*
X127317500Y-60739262D01*
X127377976Y-60709024D01*
X127408214Y-60678786D01*
X127468690Y-60588071D01*
X127498929Y-60467119D01*
X127498929Y-60225214D01*
X127468690Y-60164738D01*
X127438452Y-60134500D01*
X127377976Y-60104262D01*
X127257024Y-60104262D01*
X127196548Y-60134500D01*
X127166309Y-60164738D01*
X127136071Y-60225214D01*
X127136071Y-60376405D01*
X127166309Y-60436881D01*
X127196548Y-60467119D01*
X127257024Y-60497357D01*
X127377976Y-60497357D01*
X127438452Y-60467119D01*
X127468690Y-60436881D01*
X127498929Y-60376405D01*
X126664357Y-61948786D02*
X126694595Y-61979024D01*
X126664357Y-62009262D01*
X126634119Y-61979024D01*
X126664357Y-61948786D01*
X126664357Y-62009262D01*
X126543404Y-61404500D02*
X126603881Y-61374262D01*
X126755071Y-61374262D01*
X126815547Y-61404500D01*
X126845785Y-61464976D01*
X126845785Y-61525452D01*
X126815547Y-61585929D01*
X126785309Y-61616167D01*
X126724833Y-61646405D01*
X126694595Y-61676643D01*
X126664357Y-61737119D01*
X126664357Y-61767357D01*
X127117928Y-61585929D02*
X127117928Y-62220929D01*
X127117928Y-61616167D02*
X127178405Y-61585929D01*
X127299357Y-61585929D01*
X127359833Y-61616167D01*
X127390071Y-61646405D01*
X127420309Y-61706881D01*
X127420309Y-61888310D01*
X127390071Y-61948786D01*
X127359833Y-61979024D01*
X127299357Y-62009262D01*
X127178405Y-62009262D01*
X127117928Y-61979024D01*
X127904119Y-61676643D02*
X127692452Y-61676643D01*
X127692452Y-62009262D02*
X127692452Y-61374262D01*
X127994833Y-61374262D01*
X134973786Y-68298786D02*
X134943548Y-68329024D01*
X134852833Y-68359262D01*
X134792357Y-68359262D01*
X134701643Y-68329024D01*
X134641167Y-68268548D01*
X134610928Y-68208071D01*
X134580690Y-68087119D01*
X134580690Y-67996405D01*
X134610928Y-67875452D01*
X134641167Y-67814976D01*
X134701643Y-67754500D01*
X134792357Y-67724262D01*
X134852833Y-67724262D01*
X134943548Y-67754500D01*
X134973786Y-67784738D01*
X135578548Y-68359262D02*
X135215690Y-68359262D01*
X135397119Y-68359262D02*
X135397119Y-67724262D01*
X135336643Y-67814976D01*
X135276167Y-67875452D01*
X135215690Y-67905690D01*
X135971643Y-67724262D02*
X136032119Y-67724262D01*
X136092595Y-67754500D01*
X136122833Y-67784738D01*
X136153071Y-67845214D01*
X136183310Y-67966167D01*
X136183310Y-68117357D01*
X136153071Y-68238310D01*
X136122833Y-68298786D01*
X136092595Y-68329024D01*
X136032119Y-68359262D01*
X135971643Y-68359262D01*
X135911167Y-68329024D01*
X135880929Y-68298786D01*
X135850690Y-68238310D01*
X135820452Y-68117357D01*
X135820452Y-67966167D01*
X135850690Y-67845214D01*
X135880929Y-67784738D01*
X135911167Y-67754500D01*
X135971643Y-67724262D01*
X134592786Y-68740262D02*
X134653262Y-68740262D01*
X134713738Y-68770500D01*
X134743976Y-68800738D01*
X134774214Y-68861214D01*
X134804453Y-68982167D01*
X134804453Y-69133357D01*
X134774214Y-69254310D01*
X134743976Y-69314786D01*
X134713738Y-69345024D01*
X134653262Y-69375262D01*
X134592786Y-69375262D01*
X134532310Y-69345024D01*
X134502072Y-69314786D01*
X134471833Y-69254310D01*
X134441595Y-69133357D01*
X134441595Y-68982167D01*
X134471833Y-68861214D01*
X134502072Y-68800738D01*
X134532310Y-68770500D01*
X134592786Y-68740262D01*
X135076595Y-69314786D02*
X135106834Y-69345024D01*
X135076595Y-69375262D01*
X135046357Y-69345024D01*
X135076595Y-69314786D01*
X135076595Y-69375262D01*
X135711596Y-69375262D02*
X135348738Y-69375262D01*
X135530167Y-69375262D02*
X135530167Y-68740262D01*
X135469691Y-68830976D01*
X135409215Y-68891452D01*
X135348738Y-68921690D01*
X136255881Y-68951929D02*
X136255881Y-69375262D01*
X135983738Y-68951929D02*
X135983738Y-69284548D01*
X136013977Y-69345024D01*
X136074453Y-69375262D01*
X136165167Y-69375262D01*
X136225643Y-69345024D01*
X136255881Y-69314786D01*
X136769929Y-69042643D02*
X136558262Y-69042643D01*
X136558262Y-69375262D02*
X136558262Y-68740262D01*
X136860643Y-68740262D01*
X133002262Y-39838691D02*
X132367262Y-39838691D01*
X132367262Y-39687500D01*
X132397500Y-39596786D01*
X132457976Y-39536310D01*
X132518452Y-39506071D01*
X132639405Y-39475833D01*
X132730119Y-39475833D01*
X132851071Y-39506071D01*
X132911548Y-39536310D01*
X132972024Y-39596786D01*
X133002262Y-39687500D01*
X133002262Y-39838691D01*
X133002262Y-38871071D02*
X133002262Y-39233929D01*
X133002262Y-39052500D02*
X132367262Y-39052500D01*
X132457976Y-39112976D01*
X132518452Y-39173452D01*
X132548690Y-39233929D01*
X131097262Y-40730714D02*
X131097262Y-41093572D01*
X131097262Y-40912143D02*
X130462262Y-40912143D01*
X130552976Y-40972619D01*
X130613452Y-41033095D01*
X130643690Y-41093572D01*
X131097262Y-40458572D02*
X130462262Y-40458572D01*
X131097262Y-40095714D01*
X130462262Y-40095714D01*
X130673929Y-39521191D02*
X131097262Y-39521191D01*
X130432024Y-39672381D02*
X130885595Y-39823572D01*
X130885595Y-39430476D01*
X130462262Y-39067619D02*
X130462262Y-39007143D01*
X130492500Y-38946667D01*
X130522738Y-38916429D01*
X130583214Y-38886191D01*
X130704167Y-38855952D01*
X130855357Y-38855952D01*
X130976310Y-38886191D01*
X131036786Y-38916429D01*
X131067024Y-38946667D01*
X131097262Y-39007143D01*
X131097262Y-39067619D01*
X131067024Y-39128095D01*
X131036786Y-39158333D01*
X130976310Y-39188572D01*
X130855357Y-39218810D01*
X130704167Y-39218810D01*
X130583214Y-39188572D01*
X130522738Y-39158333D01*
X130492500Y-39128095D01*
X130462262Y-39067619D01*
X130462262Y-38462857D02*
X130462262Y-38402381D01*
X130492500Y-38341905D01*
X130522738Y-38311667D01*
X130583214Y-38281429D01*
X130704167Y-38251190D01*
X130855357Y-38251190D01*
X130976310Y-38281429D01*
X131036786Y-38311667D01*
X131067024Y-38341905D01*
X131097262Y-38402381D01*
X131097262Y-38462857D01*
X131067024Y-38523333D01*
X131036786Y-38553571D01*
X130976310Y-38583810D01*
X130855357Y-38614048D01*
X130704167Y-38614048D01*
X130583214Y-38583810D01*
X130522738Y-38553571D01*
X130492500Y-38523333D01*
X130462262Y-38462857D01*
X131097262Y-37646428D02*
X131097262Y-38009286D01*
X131097262Y-37827857D02*
X130462262Y-37827857D01*
X130552976Y-37888333D01*
X130613452Y-37948809D01*
X130643690Y-38009286D01*
X112682262Y-39838691D02*
X112047262Y-39838691D01*
X112047262Y-39687500D01*
X112077500Y-39596786D01*
X112137976Y-39536310D01*
X112198452Y-39506071D01*
X112319405Y-39475833D01*
X112410119Y-39475833D01*
X112531071Y-39506071D01*
X112591548Y-39536310D01*
X112652024Y-39596786D01*
X112682262Y-39687500D01*
X112682262Y-39838691D01*
X112107738Y-39233929D02*
X112077500Y-39203691D01*
X112047262Y-39143214D01*
X112047262Y-38992024D01*
X112077500Y-38931548D01*
X112107738Y-38901310D01*
X112168214Y-38871071D01*
X112228690Y-38871071D01*
X112319405Y-38901310D01*
X112682262Y-39264167D01*
X112682262Y-38871071D01*
X114587262Y-40730714D02*
X114587262Y-41093572D01*
X114587262Y-40912143D02*
X113952262Y-40912143D01*
X114042976Y-40972619D01*
X114103452Y-41033095D01*
X114133690Y-41093572D01*
X114587262Y-40458572D02*
X113952262Y-40458572D01*
X114587262Y-40095714D01*
X113952262Y-40095714D01*
X114163929Y-39521191D02*
X114587262Y-39521191D01*
X113922024Y-39672381D02*
X114375595Y-39823572D01*
X114375595Y-39430476D01*
X113952262Y-39067619D02*
X113952262Y-39007143D01*
X113982500Y-38946667D01*
X114012738Y-38916429D01*
X114073214Y-38886191D01*
X114194167Y-38855952D01*
X114345357Y-38855952D01*
X114466310Y-38886191D01*
X114526786Y-38916429D01*
X114557024Y-38946667D01*
X114587262Y-39007143D01*
X114587262Y-39067619D01*
X114557024Y-39128095D01*
X114526786Y-39158333D01*
X114466310Y-39188572D01*
X114345357Y-39218810D01*
X114194167Y-39218810D01*
X114073214Y-39188572D01*
X114012738Y-39158333D01*
X113982500Y-39128095D01*
X113952262Y-39067619D01*
X113952262Y-38462857D02*
X113952262Y-38402381D01*
X113982500Y-38341905D01*
X114012738Y-38311667D01*
X114073214Y-38281429D01*
X114194167Y-38251190D01*
X114345357Y-38251190D01*
X114466310Y-38281429D01*
X114526786Y-38311667D01*
X114557024Y-38341905D01*
X114587262Y-38402381D01*
X114587262Y-38462857D01*
X114557024Y-38523333D01*
X114526786Y-38553571D01*
X114466310Y-38583810D01*
X114345357Y-38614048D01*
X114194167Y-38614048D01*
X114073214Y-38583810D01*
X114012738Y-38553571D01*
X113982500Y-38523333D01*
X113952262Y-38462857D01*
X114587262Y-37646428D02*
X114587262Y-38009286D01*
X114587262Y-37827857D02*
X113952262Y-37827857D01*
X114042976Y-37888333D01*
X114103452Y-37948809D01*
X114133690Y-38009286D01*
D13*
X120232714Y-46282428D02*
X119470714Y-46282428D01*
X119470714Y-46101000D01*
X119507000Y-45992143D01*
X119579571Y-45919571D01*
X119652143Y-45883286D01*
X119797286Y-45847000D01*
X119906143Y-45847000D01*
X120051286Y-45883286D01*
X120123857Y-45919571D01*
X120196429Y-45992143D01*
X120232714Y-46101000D01*
X120232714Y-46282428D01*
X119470714Y-45593000D02*
X119470714Y-45121286D01*
X119761000Y-45375286D01*
X119761000Y-45266428D01*
X119797286Y-45193857D01*
X119833571Y-45157571D01*
X119906143Y-45121286D01*
X120087571Y-45121286D01*
X120160143Y-45157571D01*
X120196429Y-45193857D01*
X120232714Y-45266428D01*
X120232714Y-45484143D01*
X120196429Y-45556714D01*
X120160143Y-45593000D01*
X107206144Y-46699714D02*
X107206144Y-45937714D01*
X108004429Y-46627143D02*
X107968143Y-46663429D01*
X107859286Y-46699714D01*
X107786715Y-46699714D01*
X107677858Y-46663429D01*
X107605286Y-46590857D01*
X107569001Y-46518286D01*
X107532715Y-46373143D01*
X107532715Y-46264286D01*
X107569001Y-46119143D01*
X107605286Y-46046571D01*
X107677858Y-45974000D01*
X107786715Y-45937714D01*
X107859286Y-45937714D01*
X107968143Y-45974000D01*
X108004429Y-46010286D01*
X108730143Y-46699714D02*
X108294715Y-46699714D01*
X108512429Y-46699714D02*
X108512429Y-45937714D01*
X108439858Y-46046571D01*
X108367286Y-46119143D01*
X108294715Y-46155429D01*
X108077000Y-54047571D02*
X108077000Y-53684714D01*
X108294714Y-54120143D02*
X107532714Y-53866143D01*
X108294714Y-53612143D01*
X107532714Y-53467000D02*
X107532714Y-53031571D01*
X108294714Y-53249285D02*
X107532714Y-53249285D01*
X107532714Y-52886429D02*
X107532714Y-52451000D01*
X108294714Y-52668714D02*
X107532714Y-52668714D01*
X108294714Y-52197000D02*
X107532714Y-52197000D01*
X108294714Y-51834143D02*
X107532714Y-51834143D01*
X108294714Y-51398715D01*
X107532714Y-51398715D01*
X107931857Y-50890715D02*
X108294714Y-50890715D01*
X107532714Y-51144715D02*
X107931857Y-50890715D01*
X107532714Y-50636715D01*
X107859286Y-50273857D02*
X107823000Y-50346429D01*
X107786714Y-50382714D01*
X107714143Y-50419000D01*
X107677857Y-50419000D01*
X107605286Y-50382714D01*
X107569000Y-50346429D01*
X107532714Y-50273857D01*
X107532714Y-50128714D01*
X107569000Y-50056143D01*
X107605286Y-50019857D01*
X107677857Y-49983572D01*
X107714143Y-49983572D01*
X107786714Y-50019857D01*
X107823000Y-50056143D01*
X107859286Y-50128714D01*
X107859286Y-50273857D01*
X107895571Y-50346429D01*
X107931857Y-50382714D01*
X108004429Y-50419000D01*
X108149571Y-50419000D01*
X108222143Y-50382714D01*
X108258429Y-50346429D01*
X108294714Y-50273857D01*
X108294714Y-50128714D01*
X108258429Y-50056143D01*
X108222143Y-50019857D01*
X108149571Y-49983572D01*
X108004429Y-49983572D01*
X107931857Y-50019857D01*
X107895571Y-50056143D01*
X107859286Y-50128714D01*
X107532714Y-49294143D02*
X107532714Y-49657000D01*
X107895571Y-49693286D01*
X107859286Y-49657000D01*
X107823000Y-49584429D01*
X107823000Y-49403000D01*
X107859286Y-49330429D01*
X107895571Y-49294143D01*
X107968143Y-49257858D01*
X108149571Y-49257858D01*
X108222143Y-49294143D01*
X108258429Y-49330429D01*
X108294714Y-49403000D01*
X108294714Y-49584429D01*
X108258429Y-49657000D01*
X108222143Y-49693286D01*
X108004429Y-48931286D02*
X108004429Y-48350715D01*
X108294714Y-47987857D02*
X107532714Y-47987857D01*
X107532714Y-47697572D01*
X107569000Y-47625000D01*
X107605286Y-47588715D01*
X107677857Y-47552429D01*
X107786714Y-47552429D01*
X107859286Y-47588715D01*
X107895571Y-47625000D01*
X107931857Y-47697572D01*
X107931857Y-47987857D01*
X139119429Y-71283286D02*
X139046857Y-71247000D01*
X138974286Y-71174429D01*
X138865429Y-71065571D01*
X138792857Y-71029286D01*
X138720286Y-71029286D01*
X138756571Y-71210714D02*
X138684000Y-71174429D01*
X138611429Y-71101857D01*
X138575143Y-70956714D01*
X138575143Y-70702714D01*
X138611429Y-70557571D01*
X138684000Y-70485000D01*
X138756571Y-70448714D01*
X138901714Y-70448714D01*
X138974286Y-70485000D01*
X139046857Y-70557571D01*
X139083143Y-70702714D01*
X139083143Y-70956714D01*
X139046857Y-71101857D01*
X138974286Y-71174429D01*
X138901714Y-71210714D01*
X138756571Y-71210714D01*
X139808857Y-71210714D02*
X139373429Y-71210714D01*
X139591143Y-71210714D02*
X139591143Y-70448714D01*
X139518572Y-70557571D01*
X139446000Y-70630143D01*
X139373429Y-70666429D01*
X138575143Y-71718714D02*
X139010572Y-71718714D01*
X138792858Y-72480714D02*
X138792858Y-71718714D01*
X139264572Y-72480714D02*
X139264572Y-71718714D01*
X139627429Y-72480714D02*
X139627429Y-71718714D01*
X139917714Y-71718714D01*
X139990286Y-71755000D01*
X140026571Y-71791286D01*
X140062857Y-71863857D01*
X140062857Y-71972714D01*
X140026571Y-72045286D01*
X139990286Y-72081571D01*
X139917714Y-72117857D01*
X139627429Y-72117857D01*
X140716000Y-71972714D02*
X140716000Y-72480714D01*
X140534571Y-71682429D02*
X140353143Y-72226714D01*
X140824857Y-72226714D01*
X141514285Y-72480714D02*
X141078857Y-72480714D01*
X141296571Y-72480714D02*
X141296571Y-71718714D01*
X141224000Y-71827571D01*
X141151428Y-71900143D01*
X141078857Y-71936429D01*
X142276285Y-72408143D02*
X142239999Y-72444429D01*
X142131142Y-72480714D01*
X142058571Y-72480714D01*
X141949714Y-72444429D01*
X141877142Y-72371857D01*
X141840857Y-72299286D01*
X141804571Y-72154143D01*
X141804571Y-72045286D01*
X141840857Y-71900143D01*
X141877142Y-71827571D01*
X141949714Y-71755000D01*
X142058571Y-71718714D01*
X142131142Y-71718714D01*
X142239999Y-71755000D01*
X142276285Y-71791286D01*
X103251000Y-68924714D02*
X102997000Y-68561857D01*
X102815572Y-68924714D02*
X102815572Y-68162714D01*
X103105857Y-68162714D01*
X103178429Y-68199000D01*
X103214714Y-68235286D01*
X103251000Y-68307857D01*
X103251000Y-68416714D01*
X103214714Y-68489286D01*
X103178429Y-68525571D01*
X103105857Y-68561857D01*
X102815572Y-68561857D01*
X103976714Y-68924714D02*
X103541286Y-68924714D01*
X103759000Y-68924714D02*
X103759000Y-68162714D01*
X103686429Y-68271571D01*
X103613857Y-68344143D01*
X103541286Y-68380429D01*
X106625572Y-68924714D02*
X106190144Y-68924714D01*
X106407858Y-68924714D02*
X106407858Y-68162714D01*
X106335287Y-68271571D01*
X106262715Y-68344143D01*
X106190144Y-68380429D01*
X107097286Y-68162714D02*
X107169858Y-68162714D01*
X107242429Y-68199000D01*
X107278715Y-68235286D01*
X107315001Y-68307857D01*
X107351286Y-68453000D01*
X107351286Y-68634429D01*
X107315001Y-68779571D01*
X107278715Y-68852143D01*
X107242429Y-68888429D01*
X107169858Y-68924714D01*
X107097286Y-68924714D01*
X107024715Y-68888429D01*
X106988429Y-68852143D01*
X106952144Y-68779571D01*
X106915858Y-68634429D01*
X106915858Y-68453000D01*
X106952144Y-68307857D01*
X106988429Y-68235286D01*
X107024715Y-68199000D01*
X107097286Y-68162714D01*
X107823000Y-68162714D02*
X107895572Y-68162714D01*
X107968143Y-68199000D01*
X108004429Y-68235286D01*
X108040715Y-68307857D01*
X108077000Y-68453000D01*
X108077000Y-68634429D01*
X108040715Y-68779571D01*
X108004429Y-68852143D01*
X107968143Y-68888429D01*
X107895572Y-68924714D01*
X107823000Y-68924714D01*
X107750429Y-68888429D01*
X107714143Y-68852143D01*
X107677858Y-68779571D01*
X107641572Y-68634429D01*
X107641572Y-68453000D01*
X107677858Y-68307857D01*
X107714143Y-68235286D01*
X107750429Y-68199000D01*
X107823000Y-68162714D01*
X108403572Y-68924714D02*
X108403572Y-68162714D01*
X108476143Y-68634429D02*
X108693857Y-68924714D01*
X108693857Y-68416714D02*
X108403572Y-68707000D01*
X107315000Y-71464714D02*
X107061000Y-71101857D01*
X106879572Y-71464714D02*
X106879572Y-70702714D01*
X107169857Y-70702714D01*
X107242429Y-70739000D01*
X107278714Y-70775286D01*
X107315000Y-70847857D01*
X107315000Y-70956714D01*
X107278714Y-71029286D01*
X107242429Y-71065571D01*
X107169857Y-71101857D01*
X106879572Y-71101857D01*
X107605286Y-70775286D02*
X107641572Y-70739000D01*
X107714143Y-70702714D01*
X107895572Y-70702714D01*
X107968143Y-70739000D01*
X108004429Y-70775286D01*
X108040714Y-70847857D01*
X108040714Y-70920429D01*
X108004429Y-71029286D01*
X107569000Y-71464714D01*
X108040714Y-71464714D01*
X102561572Y-71464714D02*
X102126144Y-71464714D01*
X102343858Y-71464714D02*
X102343858Y-70702714D01*
X102271287Y-70811571D01*
X102198715Y-70884143D01*
X102126144Y-70920429D01*
X103033286Y-70702714D02*
X103105858Y-70702714D01*
X103178429Y-70739000D01*
X103214715Y-70775286D01*
X103251001Y-70847857D01*
X103287286Y-70993000D01*
X103287286Y-71174429D01*
X103251001Y-71319571D01*
X103214715Y-71392143D01*
X103178429Y-71428429D01*
X103105858Y-71464714D01*
X103033286Y-71464714D01*
X102960715Y-71428429D01*
X102924429Y-71392143D01*
X102888144Y-71319571D01*
X102851858Y-71174429D01*
X102851858Y-70993000D01*
X102888144Y-70847857D01*
X102924429Y-70775286D01*
X102960715Y-70739000D01*
X103033286Y-70702714D01*
X103759000Y-70702714D02*
X103831572Y-70702714D01*
X103904143Y-70739000D01*
X103940429Y-70775286D01*
X103976715Y-70847857D01*
X104013000Y-70993000D01*
X104013000Y-71174429D01*
X103976715Y-71319571D01*
X103940429Y-71392143D01*
X103904143Y-71428429D01*
X103831572Y-71464714D01*
X103759000Y-71464714D01*
X103686429Y-71428429D01*
X103650143Y-71392143D01*
X103613858Y-71319571D01*
X103577572Y-71174429D01*
X103577572Y-70993000D01*
X103613858Y-70847857D01*
X103650143Y-70775286D01*
X103686429Y-70739000D01*
X103759000Y-70702714D01*
X104339572Y-71464714D02*
X104339572Y-70702714D01*
X104412143Y-71174429D02*
X104629857Y-71464714D01*
X104629857Y-70956714D02*
X104339572Y-71247000D01*
X117856000Y-69559714D02*
X117602000Y-69196857D01*
X117420572Y-69559714D02*
X117420572Y-68797714D01*
X117710857Y-68797714D01*
X117783429Y-68834000D01*
X117819714Y-68870286D01*
X117856000Y-68942857D01*
X117856000Y-69051714D01*
X117819714Y-69124286D01*
X117783429Y-69160571D01*
X117710857Y-69196857D01*
X117420572Y-69196857D01*
X118110000Y-68797714D02*
X118581714Y-68797714D01*
X118327714Y-69088000D01*
X118436572Y-69088000D01*
X118509143Y-69124286D01*
X118545429Y-69160571D01*
X118581714Y-69233143D01*
X118581714Y-69414571D01*
X118545429Y-69487143D01*
X118509143Y-69523429D01*
X118436572Y-69559714D01*
X118218857Y-69559714D01*
X118146286Y-69523429D01*
X118110000Y-69487143D01*
X121230572Y-69559714D02*
X120795144Y-69559714D01*
X121012858Y-69559714D02*
X121012858Y-68797714D01*
X120940287Y-68906571D01*
X120867715Y-68979143D01*
X120795144Y-69015429D01*
X121702286Y-68797714D02*
X121774858Y-68797714D01*
X121847429Y-68834000D01*
X121883715Y-68870286D01*
X121920001Y-68942857D01*
X121956286Y-69088000D01*
X121956286Y-69269429D01*
X121920001Y-69414571D01*
X121883715Y-69487143D01*
X121847429Y-69523429D01*
X121774858Y-69559714D01*
X121702286Y-69559714D01*
X121629715Y-69523429D01*
X121593429Y-69487143D01*
X121557144Y-69414571D01*
X121520858Y-69269429D01*
X121520858Y-69088000D01*
X121557144Y-68942857D01*
X121593429Y-68870286D01*
X121629715Y-68834000D01*
X121702286Y-68797714D01*
X122428000Y-68797714D02*
X122500572Y-68797714D01*
X122573143Y-68834000D01*
X122609429Y-68870286D01*
X122645715Y-68942857D01*
X122682000Y-69088000D01*
X122682000Y-69269429D01*
X122645715Y-69414571D01*
X122609429Y-69487143D01*
X122573143Y-69523429D01*
X122500572Y-69559714D01*
X122428000Y-69559714D01*
X122355429Y-69523429D01*
X122319143Y-69487143D01*
X122282858Y-69414571D01*
X122246572Y-69269429D01*
X122246572Y-69088000D01*
X122282858Y-68942857D01*
X122319143Y-68870286D01*
X122355429Y-68834000D01*
X122428000Y-68797714D01*
X123008572Y-69559714D02*
X123008572Y-68797714D01*
X123081143Y-69269429D02*
X123298857Y-69559714D01*
X123298857Y-69051714D02*
X123008572Y-69342000D01*
X124804714Y-58039000D02*
X124441857Y-58293000D01*
X124804714Y-58474428D02*
X124042714Y-58474428D01*
X124042714Y-58184143D01*
X124079000Y-58111571D01*
X124115286Y-58075286D01*
X124187857Y-58039000D01*
X124296714Y-58039000D01*
X124369286Y-58075286D01*
X124405571Y-58111571D01*
X124441857Y-58184143D01*
X124441857Y-58474428D01*
X124296714Y-57385857D02*
X124804714Y-57385857D01*
X124006429Y-57567286D02*
X124550714Y-57748714D01*
X124550714Y-57277000D01*
X124804714Y-54664428D02*
X124804714Y-55099856D01*
X124804714Y-54882142D02*
X124042714Y-54882142D01*
X124151571Y-54954713D01*
X124224143Y-55027285D01*
X124260429Y-55099856D01*
X124042714Y-54192714D02*
X124042714Y-54120142D01*
X124079000Y-54047571D01*
X124115286Y-54011285D01*
X124187857Y-53974999D01*
X124333000Y-53938714D01*
X124514429Y-53938714D01*
X124659571Y-53974999D01*
X124732143Y-54011285D01*
X124768429Y-54047571D01*
X124804714Y-54120142D01*
X124804714Y-54192714D01*
X124768429Y-54265285D01*
X124732143Y-54301571D01*
X124659571Y-54337856D01*
X124514429Y-54374142D01*
X124333000Y-54374142D01*
X124187857Y-54337856D01*
X124115286Y-54301571D01*
X124079000Y-54265285D01*
X124042714Y-54192714D01*
X124042714Y-53467000D02*
X124042714Y-53394428D01*
X124079000Y-53321857D01*
X124115286Y-53285571D01*
X124187857Y-53249285D01*
X124333000Y-53213000D01*
X124514429Y-53213000D01*
X124659571Y-53249285D01*
X124732143Y-53285571D01*
X124768429Y-53321857D01*
X124804714Y-53394428D01*
X124804714Y-53467000D01*
X124768429Y-53539571D01*
X124732143Y-53575857D01*
X124659571Y-53612142D01*
X124514429Y-53648428D01*
X124333000Y-53648428D01*
X124187857Y-53612142D01*
X124115286Y-53575857D01*
X124079000Y-53539571D01*
X124042714Y-53467000D01*
X124804714Y-52886428D02*
X124042714Y-52886428D01*
X124514429Y-52813857D02*
X124804714Y-52596143D01*
X124296714Y-52596143D02*
X124587000Y-52886428D01*
X121920000Y-74639714D02*
X121666000Y-74276857D01*
X121484572Y-74639714D02*
X121484572Y-73877714D01*
X121774857Y-73877714D01*
X121847429Y-73914000D01*
X121883714Y-73950286D01*
X121920000Y-74022857D01*
X121920000Y-74131714D01*
X121883714Y-74204286D01*
X121847429Y-74240571D01*
X121774857Y-74276857D01*
X121484572Y-74276857D01*
X122609429Y-73877714D02*
X122246572Y-73877714D01*
X122210286Y-74240571D01*
X122246572Y-74204286D01*
X122319143Y-74168000D01*
X122500572Y-74168000D01*
X122573143Y-74204286D01*
X122609429Y-74240571D01*
X122645714Y-74313143D01*
X122645714Y-74494571D01*
X122609429Y-74567143D01*
X122573143Y-74603429D01*
X122500572Y-74639714D01*
X122319143Y-74639714D01*
X122246572Y-74603429D01*
X122210286Y-74567143D01*
X117039572Y-73950286D02*
X117075858Y-73914000D01*
X117148429Y-73877714D01*
X117329858Y-73877714D01*
X117402429Y-73914000D01*
X117438715Y-73950286D01*
X117475000Y-74022857D01*
X117475000Y-74095429D01*
X117438715Y-74204286D01*
X117003286Y-74639714D01*
X117475000Y-74639714D01*
X117765286Y-73950286D02*
X117801572Y-73914000D01*
X117874143Y-73877714D01*
X118055572Y-73877714D01*
X118128143Y-73914000D01*
X118164429Y-73950286D01*
X118200714Y-74022857D01*
X118200714Y-74095429D01*
X118164429Y-74204286D01*
X117729000Y-74639714D01*
X118200714Y-74639714D01*
X118672428Y-73877714D02*
X118745000Y-73877714D01*
X118817571Y-73914000D01*
X118853857Y-73950286D01*
X118890143Y-74022857D01*
X118926428Y-74168000D01*
X118926428Y-74349429D01*
X118890143Y-74494571D01*
X118853857Y-74567143D01*
X118817571Y-74603429D01*
X118745000Y-74639714D01*
X118672428Y-74639714D01*
X118599857Y-74603429D01*
X118563571Y-74567143D01*
X118527286Y-74494571D01*
X118491000Y-74349429D01*
X118491000Y-74168000D01*
X118527286Y-74022857D01*
X118563571Y-73950286D01*
X118599857Y-73914000D01*
X118672428Y-73877714D01*
X121920000Y-72099714D02*
X121666000Y-71736857D01*
X121484572Y-72099714D02*
X121484572Y-71337714D01*
X121774857Y-71337714D01*
X121847429Y-71374000D01*
X121883714Y-71410286D01*
X121920000Y-71482857D01*
X121920000Y-71591714D01*
X121883714Y-71664286D01*
X121847429Y-71700571D01*
X121774857Y-71736857D01*
X121484572Y-71736857D01*
X122573143Y-71337714D02*
X122428000Y-71337714D01*
X122355429Y-71374000D01*
X122319143Y-71410286D01*
X122246572Y-71519143D01*
X122210286Y-71664286D01*
X122210286Y-71954571D01*
X122246572Y-72027143D01*
X122282857Y-72063429D01*
X122355429Y-72099714D01*
X122500572Y-72099714D01*
X122573143Y-72063429D01*
X122609429Y-72027143D01*
X122645714Y-71954571D01*
X122645714Y-71773143D01*
X122609429Y-71700571D01*
X122573143Y-71664286D01*
X122500572Y-71628000D01*
X122355429Y-71628000D01*
X122282857Y-71664286D01*
X122246572Y-71700571D01*
X122210286Y-71773143D01*
X117166572Y-72099714D02*
X116731144Y-72099714D01*
X116948858Y-72099714D02*
X116948858Y-71337714D01*
X116876287Y-71446571D01*
X116803715Y-71519143D01*
X116731144Y-71555429D01*
X117638286Y-71337714D02*
X117710858Y-71337714D01*
X117783429Y-71374000D01*
X117819715Y-71410286D01*
X117856001Y-71482857D01*
X117892286Y-71628000D01*
X117892286Y-71809429D01*
X117856001Y-71954571D01*
X117819715Y-72027143D01*
X117783429Y-72063429D01*
X117710858Y-72099714D01*
X117638286Y-72099714D01*
X117565715Y-72063429D01*
X117529429Y-72027143D01*
X117493144Y-71954571D01*
X117456858Y-71809429D01*
X117456858Y-71628000D01*
X117493144Y-71482857D01*
X117529429Y-71410286D01*
X117565715Y-71374000D01*
X117638286Y-71337714D01*
X118364000Y-71337714D02*
X118436572Y-71337714D01*
X118509143Y-71374000D01*
X118545429Y-71410286D01*
X118581715Y-71482857D01*
X118618000Y-71628000D01*
X118618000Y-71809429D01*
X118581715Y-71954571D01*
X118545429Y-72027143D01*
X118509143Y-72063429D01*
X118436572Y-72099714D01*
X118364000Y-72099714D01*
X118291429Y-72063429D01*
X118255143Y-72027143D01*
X118218858Y-71954571D01*
X118182572Y-71809429D01*
X118182572Y-71628000D01*
X118218858Y-71482857D01*
X118255143Y-71410286D01*
X118291429Y-71374000D01*
X118364000Y-71337714D01*
X118944572Y-72099714D02*
X118944572Y-71337714D01*
X119017143Y-71809429D02*
X119234857Y-72099714D01*
X119234857Y-71591714D02*
X118944572Y-71882000D01*
X122264714Y-58039000D02*
X121901857Y-58293000D01*
X122264714Y-58474428D02*
X121502714Y-58474428D01*
X121502714Y-58184143D01*
X121539000Y-58111571D01*
X121575286Y-58075286D01*
X121647857Y-58039000D01*
X121756714Y-58039000D01*
X121829286Y-58075286D01*
X121865571Y-58111571D01*
X121901857Y-58184143D01*
X121901857Y-58474428D01*
X121502714Y-57785000D02*
X121502714Y-57277000D01*
X122264714Y-57603571D01*
X122264714Y-54664428D02*
X122264714Y-55099856D01*
X122264714Y-54882142D02*
X121502714Y-54882142D01*
X121611571Y-54954713D01*
X121684143Y-55027285D01*
X121720429Y-55099856D01*
X121502714Y-54192714D02*
X121502714Y-54120142D01*
X121539000Y-54047571D01*
X121575286Y-54011285D01*
X121647857Y-53974999D01*
X121793000Y-53938714D01*
X121974429Y-53938714D01*
X122119571Y-53974999D01*
X122192143Y-54011285D01*
X122228429Y-54047571D01*
X122264714Y-54120142D01*
X122264714Y-54192714D01*
X122228429Y-54265285D01*
X122192143Y-54301571D01*
X122119571Y-54337856D01*
X121974429Y-54374142D01*
X121793000Y-54374142D01*
X121647857Y-54337856D01*
X121575286Y-54301571D01*
X121539000Y-54265285D01*
X121502714Y-54192714D01*
X121502714Y-53467000D02*
X121502714Y-53394428D01*
X121539000Y-53321857D01*
X121575286Y-53285571D01*
X121647857Y-53249285D01*
X121793000Y-53213000D01*
X121974429Y-53213000D01*
X122119571Y-53249285D01*
X122192143Y-53285571D01*
X122228429Y-53321857D01*
X122264714Y-53394428D01*
X122264714Y-53467000D01*
X122228429Y-53539571D01*
X122192143Y-53575857D01*
X122119571Y-53612142D01*
X121974429Y-53648428D01*
X121793000Y-53648428D01*
X121647857Y-53612142D01*
X121575286Y-53575857D01*
X121539000Y-53539571D01*
X121502714Y-53467000D01*
X122264714Y-52886428D02*
X121502714Y-52886428D01*
X121974429Y-52813857D02*
X122264714Y-52596143D01*
X121756714Y-52596143D02*
X122047000Y-52886428D01*
X134620000Y-77179714D02*
X134366000Y-76816857D01*
X134184572Y-77179714D02*
X134184572Y-76417714D01*
X134474857Y-76417714D01*
X134547429Y-76454000D01*
X134583714Y-76490286D01*
X134620000Y-76562857D01*
X134620000Y-76671714D01*
X134583714Y-76744286D01*
X134547429Y-76780571D01*
X134474857Y-76816857D01*
X134184572Y-76816857D01*
X135055429Y-76744286D02*
X134982857Y-76708000D01*
X134946572Y-76671714D01*
X134910286Y-76599143D01*
X134910286Y-76562857D01*
X134946572Y-76490286D01*
X134982857Y-76454000D01*
X135055429Y-76417714D01*
X135200572Y-76417714D01*
X135273143Y-76454000D01*
X135309429Y-76490286D01*
X135345714Y-76562857D01*
X135345714Y-76599143D01*
X135309429Y-76671714D01*
X135273143Y-76708000D01*
X135200572Y-76744286D01*
X135055429Y-76744286D01*
X134982857Y-76780571D01*
X134946572Y-76816857D01*
X134910286Y-76889429D01*
X134910286Y-77034571D01*
X134946572Y-77107143D01*
X134982857Y-77143429D01*
X135055429Y-77179714D01*
X135200572Y-77179714D01*
X135273143Y-77143429D01*
X135309429Y-77107143D01*
X135345714Y-77034571D01*
X135345714Y-76889429D01*
X135309429Y-76816857D01*
X135273143Y-76780571D01*
X135200572Y-76744286D01*
X130156857Y-77179714D02*
X129721429Y-77179714D01*
X129939143Y-77179714D02*
X129939143Y-76417714D01*
X129866572Y-76526571D01*
X129794000Y-76599143D01*
X129721429Y-76635429D01*
X130628571Y-76417714D02*
X130701143Y-76417714D01*
X130773714Y-76454000D01*
X130810000Y-76490286D01*
X130846286Y-76562857D01*
X130882571Y-76708000D01*
X130882571Y-76889429D01*
X130846286Y-77034571D01*
X130810000Y-77107143D01*
X130773714Y-77143429D01*
X130701143Y-77179714D01*
X130628571Y-77179714D01*
X130556000Y-77143429D01*
X130519714Y-77107143D01*
X130483429Y-77034571D01*
X130447143Y-76889429D01*
X130447143Y-76708000D01*
X130483429Y-76562857D01*
X130519714Y-76490286D01*
X130556000Y-76454000D01*
X130628571Y-76417714D01*
X131644571Y-77179714D02*
X131390571Y-76816857D01*
X131209143Y-77179714D02*
X131209143Y-76417714D01*
X131499428Y-76417714D01*
X131572000Y-76454000D01*
X131608285Y-76490286D01*
X131644571Y-76562857D01*
X131644571Y-76671714D01*
X131608285Y-76744286D01*
X131572000Y-76780571D01*
X131499428Y-76816857D01*
X131209143Y-76816857D01*
X121920000Y-77179714D02*
X121666000Y-76816857D01*
X121484572Y-77179714D02*
X121484572Y-76417714D01*
X121774857Y-76417714D01*
X121847429Y-76454000D01*
X121883714Y-76490286D01*
X121920000Y-76562857D01*
X121920000Y-76671714D01*
X121883714Y-76744286D01*
X121847429Y-76780571D01*
X121774857Y-76816857D01*
X121484572Y-76816857D01*
X122282857Y-77179714D02*
X122428000Y-77179714D01*
X122500572Y-77143429D01*
X122536857Y-77107143D01*
X122609429Y-76998286D01*
X122645714Y-76853143D01*
X122645714Y-76562857D01*
X122609429Y-76490286D01*
X122573143Y-76454000D01*
X122500572Y-76417714D01*
X122355429Y-76417714D01*
X122282857Y-76454000D01*
X122246572Y-76490286D01*
X122210286Y-76562857D01*
X122210286Y-76744286D01*
X122246572Y-76816857D01*
X122282857Y-76853143D01*
X122355429Y-76889429D01*
X122500572Y-76889429D01*
X122573143Y-76853143D01*
X122609429Y-76816857D01*
X122645714Y-76744286D01*
X117456857Y-77179714D02*
X117021429Y-77179714D01*
X117239143Y-77179714D02*
X117239143Y-76417714D01*
X117166572Y-76526571D01*
X117094000Y-76599143D01*
X117021429Y-76635429D01*
X117928571Y-76417714D02*
X118001143Y-76417714D01*
X118073714Y-76454000D01*
X118110000Y-76490286D01*
X118146286Y-76562857D01*
X118182571Y-76708000D01*
X118182571Y-76889429D01*
X118146286Y-77034571D01*
X118110000Y-77107143D01*
X118073714Y-77143429D01*
X118001143Y-77179714D01*
X117928571Y-77179714D01*
X117856000Y-77143429D01*
X117819714Y-77107143D01*
X117783429Y-77034571D01*
X117747143Y-76889429D01*
X117747143Y-76708000D01*
X117783429Y-76562857D01*
X117819714Y-76490286D01*
X117856000Y-76454000D01*
X117928571Y-76417714D01*
X118944571Y-77179714D02*
X118690571Y-76816857D01*
X118509143Y-77179714D02*
X118509143Y-76417714D01*
X118799428Y-76417714D01*
X118872000Y-76454000D01*
X118908285Y-76490286D01*
X118944571Y-76562857D01*
X118944571Y-76671714D01*
X118908285Y-76744286D01*
X118872000Y-76780571D01*
X118799428Y-76816857D01*
X118509143Y-76816857D01*
X134257143Y-79719714D02*
X134003143Y-79356857D01*
X133821715Y-79719714D02*
X133821715Y-78957714D01*
X134112000Y-78957714D01*
X134184572Y-78994000D01*
X134220857Y-79030286D01*
X134257143Y-79102857D01*
X134257143Y-79211714D01*
X134220857Y-79284286D01*
X134184572Y-79320571D01*
X134112000Y-79356857D01*
X133821715Y-79356857D01*
X134982857Y-79719714D02*
X134547429Y-79719714D01*
X134765143Y-79719714D02*
X134765143Y-78957714D01*
X134692572Y-79066571D01*
X134620000Y-79139143D01*
X134547429Y-79175429D01*
X135454571Y-78957714D02*
X135527143Y-78957714D01*
X135599714Y-78994000D01*
X135636000Y-79030286D01*
X135672286Y-79102857D01*
X135708571Y-79248000D01*
X135708571Y-79429429D01*
X135672286Y-79574571D01*
X135636000Y-79647143D01*
X135599714Y-79683429D01*
X135527143Y-79719714D01*
X135454571Y-79719714D01*
X135382000Y-79683429D01*
X135345714Y-79647143D01*
X135309429Y-79574571D01*
X135273143Y-79429429D01*
X135273143Y-79248000D01*
X135309429Y-79102857D01*
X135345714Y-79030286D01*
X135382000Y-78994000D01*
X135454571Y-78957714D01*
X130156857Y-79719714D02*
X129721429Y-79719714D01*
X129939143Y-79719714D02*
X129939143Y-78957714D01*
X129866572Y-79066571D01*
X129794000Y-79139143D01*
X129721429Y-79175429D01*
X130628571Y-78957714D02*
X130701143Y-78957714D01*
X130773714Y-78994000D01*
X130810000Y-79030286D01*
X130846286Y-79102857D01*
X130882571Y-79248000D01*
X130882571Y-79429429D01*
X130846286Y-79574571D01*
X130810000Y-79647143D01*
X130773714Y-79683429D01*
X130701143Y-79719714D01*
X130628571Y-79719714D01*
X130556000Y-79683429D01*
X130519714Y-79647143D01*
X130483429Y-79574571D01*
X130447143Y-79429429D01*
X130447143Y-79248000D01*
X130483429Y-79102857D01*
X130519714Y-79030286D01*
X130556000Y-78994000D01*
X130628571Y-78957714D01*
X131644571Y-79719714D02*
X131390571Y-79356857D01*
X131209143Y-79719714D02*
X131209143Y-78957714D01*
X131499428Y-78957714D01*
X131572000Y-78994000D01*
X131608285Y-79030286D01*
X131644571Y-79102857D01*
X131644571Y-79211714D01*
X131608285Y-79284286D01*
X131572000Y-79320571D01*
X131499428Y-79356857D01*
X131209143Y-79356857D01*
X121557143Y-79719714D02*
X121303143Y-79356857D01*
X121121715Y-79719714D02*
X121121715Y-78957714D01*
X121412000Y-78957714D01*
X121484572Y-78994000D01*
X121520857Y-79030286D01*
X121557143Y-79102857D01*
X121557143Y-79211714D01*
X121520857Y-79284286D01*
X121484572Y-79320571D01*
X121412000Y-79356857D01*
X121121715Y-79356857D01*
X122282857Y-79719714D02*
X121847429Y-79719714D01*
X122065143Y-79719714D02*
X122065143Y-78957714D01*
X121992572Y-79066571D01*
X121920000Y-79139143D01*
X121847429Y-79175429D01*
X123008571Y-79719714D02*
X122573143Y-79719714D01*
X122790857Y-79719714D02*
X122790857Y-78957714D01*
X122718286Y-79066571D01*
X122645714Y-79139143D01*
X122573143Y-79175429D01*
X117456857Y-79719714D02*
X117021429Y-79719714D01*
X117239143Y-79719714D02*
X117239143Y-78957714D01*
X117166572Y-79066571D01*
X117094000Y-79139143D01*
X117021429Y-79175429D01*
X117928571Y-78957714D02*
X118001143Y-78957714D01*
X118073714Y-78994000D01*
X118110000Y-79030286D01*
X118146286Y-79102857D01*
X118182571Y-79248000D01*
X118182571Y-79429429D01*
X118146286Y-79574571D01*
X118110000Y-79647143D01*
X118073714Y-79683429D01*
X118001143Y-79719714D01*
X117928571Y-79719714D01*
X117856000Y-79683429D01*
X117819714Y-79647143D01*
X117783429Y-79574571D01*
X117747143Y-79429429D01*
X117747143Y-79248000D01*
X117783429Y-79102857D01*
X117819714Y-79030286D01*
X117856000Y-78994000D01*
X117928571Y-78957714D01*
X118944571Y-79719714D02*
X118690571Y-79356857D01*
X118509143Y-79719714D02*
X118509143Y-78957714D01*
X118799428Y-78957714D01*
X118872000Y-78994000D01*
X118908285Y-79030286D01*
X118944571Y-79102857D01*
X118944571Y-79211714D01*
X118908285Y-79284286D01*
X118872000Y-79320571D01*
X118799428Y-79356857D01*
X118509143Y-79356857D01*
X120033143Y-42254714D02*
X119779143Y-41891857D01*
X119597715Y-42254714D02*
X119597715Y-41492714D01*
X119888000Y-41492714D01*
X119960572Y-41529000D01*
X119996857Y-41565286D01*
X120033143Y-41637857D01*
X120033143Y-41746714D01*
X119996857Y-41819286D01*
X119960572Y-41855571D01*
X119888000Y-41891857D01*
X119597715Y-41891857D01*
X120758857Y-42254714D02*
X120323429Y-42254714D01*
X120541143Y-42254714D02*
X120541143Y-41492714D01*
X120468572Y-41601571D01*
X120396000Y-41674143D01*
X120323429Y-41710429D01*
X121049143Y-41565286D02*
X121085429Y-41529000D01*
X121158000Y-41492714D01*
X121339429Y-41492714D01*
X121412000Y-41529000D01*
X121448286Y-41565286D01*
X121484571Y-41637857D01*
X121484571Y-41710429D01*
X121448286Y-41819286D01*
X121012857Y-42254714D01*
X121484571Y-42254714D01*
X123643572Y-41565286D02*
X123679858Y-41529000D01*
X123752429Y-41492714D01*
X123933858Y-41492714D01*
X124006429Y-41529000D01*
X124042715Y-41565286D01*
X124079000Y-41637857D01*
X124079000Y-41710429D01*
X124042715Y-41819286D01*
X123607286Y-42254714D01*
X124079000Y-42254714D01*
X124369286Y-41565286D02*
X124405572Y-41529000D01*
X124478143Y-41492714D01*
X124659572Y-41492714D01*
X124732143Y-41529000D01*
X124768429Y-41565286D01*
X124804714Y-41637857D01*
X124804714Y-41710429D01*
X124768429Y-41819286D01*
X124333000Y-42254714D01*
X124804714Y-42254714D01*
X125276428Y-41492714D02*
X125349000Y-41492714D01*
X125421571Y-41529000D01*
X125457857Y-41565286D01*
X125494143Y-41637857D01*
X125530428Y-41783000D01*
X125530428Y-41964429D01*
X125494143Y-42109571D01*
X125457857Y-42182143D01*
X125421571Y-42218429D01*
X125349000Y-42254714D01*
X125276428Y-42254714D01*
X125203857Y-42218429D01*
X125167571Y-42182143D01*
X125131286Y-42109571D01*
X125095000Y-41964429D01*
X125095000Y-41783000D01*
X125131286Y-41637857D01*
X125167571Y-41565286D01*
X125203857Y-41529000D01*
X125276428Y-41492714D01*
X140552714Y-59000571D02*
X141169571Y-59000571D01*
X141242143Y-58964286D01*
X141278429Y-58928000D01*
X141314714Y-58855429D01*
X141314714Y-58710286D01*
X141278429Y-58637714D01*
X141242143Y-58601429D01*
X141169571Y-58565143D01*
X140552714Y-58565143D01*
X141314714Y-57803143D02*
X141314714Y-58238571D01*
X141314714Y-58020857D02*
X140552714Y-58020857D01*
X140661571Y-58093428D01*
X140734143Y-58166000D01*
X140770429Y-58238571D01*
X140552714Y-56587571D02*
X140552714Y-56079571D01*
X141314714Y-56406142D01*
X140879286Y-55680428D02*
X140843000Y-55753000D01*
X140806714Y-55789285D01*
X140734143Y-55825571D01*
X140697857Y-55825571D01*
X140625286Y-55789285D01*
X140589000Y-55753000D01*
X140552714Y-55680428D01*
X140552714Y-55535285D01*
X140589000Y-55462714D01*
X140625286Y-55426428D01*
X140697857Y-55390143D01*
X140734143Y-55390143D01*
X140806714Y-55426428D01*
X140843000Y-55462714D01*
X140879286Y-55535285D01*
X140879286Y-55680428D01*
X140915571Y-55753000D01*
X140951857Y-55789285D01*
X141024429Y-55825571D01*
X141169571Y-55825571D01*
X141242143Y-55789285D01*
X141278429Y-55753000D01*
X141314714Y-55680428D01*
X141314714Y-55535285D01*
X141278429Y-55462714D01*
X141242143Y-55426428D01*
X141169571Y-55390143D01*
X141024429Y-55390143D01*
X140951857Y-55426428D01*
X140915571Y-55462714D01*
X140879286Y-55535285D01*
X140552714Y-54918429D02*
X140552714Y-54845857D01*
X140589000Y-54773286D01*
X140625286Y-54737000D01*
X140697857Y-54700714D01*
X140843000Y-54664429D01*
X141024429Y-54664429D01*
X141169571Y-54700714D01*
X141242143Y-54737000D01*
X141278429Y-54773286D01*
X141314714Y-54845857D01*
X141314714Y-54918429D01*
X141278429Y-54991000D01*
X141242143Y-55027286D01*
X141169571Y-55063571D01*
X141024429Y-55099857D01*
X140843000Y-55099857D01*
X140697857Y-55063571D01*
X140625286Y-55027286D01*
X140589000Y-54991000D01*
X140552714Y-54918429D01*
X140552714Y-53975000D02*
X140552714Y-54337857D01*
X140915571Y-54374143D01*
X140879286Y-54337857D01*
X140843000Y-54265286D01*
X140843000Y-54083857D01*
X140879286Y-54011286D01*
X140915571Y-53975000D01*
X140988143Y-53938715D01*
X141169571Y-53938715D01*
X141242143Y-53975000D01*
X141278429Y-54011286D01*
X141314714Y-54083857D01*
X141314714Y-54265286D01*
X141278429Y-54337857D01*
X141242143Y-54374143D01*
X106897714Y-61540571D02*
X107514571Y-61540571D01*
X107587143Y-61504286D01*
X107623429Y-61468000D01*
X107659714Y-61395429D01*
X107659714Y-61250286D01*
X107623429Y-61177714D01*
X107587143Y-61141429D01*
X107514571Y-61105143D01*
X106897714Y-61105143D01*
X106970286Y-60778571D02*
X106934000Y-60742285D01*
X106897714Y-60669714D01*
X106897714Y-60488285D01*
X106934000Y-60415714D01*
X106970286Y-60379428D01*
X107042857Y-60343143D01*
X107115429Y-60343143D01*
X107224286Y-60379428D01*
X107659714Y-60814857D01*
X107659714Y-60343143D01*
X100402573Y-61304714D02*
X100402573Y-60542714D01*
X100656573Y-61087000D01*
X100910573Y-60542714D01*
X100910573Y-61304714D01*
X101708858Y-61232143D02*
X101672572Y-61268429D01*
X101563715Y-61304714D01*
X101491144Y-61304714D01*
X101382287Y-61268429D01*
X101309715Y-61195857D01*
X101273430Y-61123286D01*
X101237144Y-60978143D01*
X101237144Y-60869286D01*
X101273430Y-60724143D01*
X101309715Y-60651571D01*
X101382287Y-60579000D01*
X101491144Y-60542714D01*
X101563715Y-60542714D01*
X101672572Y-60579000D01*
X101708858Y-60615286D01*
X102035430Y-61304714D02*
X102035430Y-60542714D01*
X102325715Y-60542714D01*
X102398287Y-60579000D01*
X102434572Y-60615286D01*
X102470858Y-60687857D01*
X102470858Y-60796714D01*
X102434572Y-60869286D01*
X102398287Y-60905571D01*
X102325715Y-60941857D01*
X102035430Y-60941857D01*
X103124001Y-60796714D02*
X103124001Y-61304714D01*
X102942572Y-60506429D02*
X102761144Y-61050714D01*
X103232858Y-61050714D01*
X103632001Y-60869286D02*
X103559429Y-60833000D01*
X103523144Y-60796714D01*
X103486858Y-60724143D01*
X103486858Y-60687857D01*
X103523144Y-60615286D01*
X103559429Y-60579000D01*
X103632001Y-60542714D01*
X103777144Y-60542714D01*
X103849715Y-60579000D01*
X103886001Y-60615286D01*
X103922286Y-60687857D01*
X103922286Y-60724143D01*
X103886001Y-60796714D01*
X103849715Y-60833000D01*
X103777144Y-60869286D01*
X103632001Y-60869286D01*
X103559429Y-60905571D01*
X103523144Y-60941857D01*
X103486858Y-61014429D01*
X103486858Y-61159571D01*
X103523144Y-61232143D01*
X103559429Y-61268429D01*
X103632001Y-61304714D01*
X103777144Y-61304714D01*
X103849715Y-61268429D01*
X103886001Y-61232143D01*
X103922286Y-61159571D01*
X103922286Y-61014429D01*
X103886001Y-60941857D01*
X103849715Y-60905571D01*
X103777144Y-60869286D01*
X104394000Y-60542714D02*
X104466572Y-60542714D01*
X104539143Y-60579000D01*
X104575429Y-60615286D01*
X104611715Y-60687857D01*
X104648000Y-60833000D01*
X104648000Y-61014429D01*
X104611715Y-61159571D01*
X104575429Y-61232143D01*
X104539143Y-61268429D01*
X104466572Y-61304714D01*
X104394000Y-61304714D01*
X104321429Y-61268429D01*
X104285143Y-61232143D01*
X104248858Y-61159571D01*
X104212572Y-61014429D01*
X104212572Y-60833000D01*
X104248858Y-60687857D01*
X104285143Y-60615286D01*
X104321429Y-60579000D01*
X104394000Y-60542714D01*
X105373714Y-61304714D02*
X104938286Y-61304714D01*
X105156000Y-61304714D02*
X105156000Y-60542714D01*
X105083429Y-60651571D01*
X105010857Y-60724143D01*
X104938286Y-60760429D01*
X132769429Y-52287714D02*
X132769429Y-52904571D01*
X132805714Y-52977143D01*
X132842000Y-53013429D01*
X132914571Y-53049714D01*
X133059714Y-53049714D01*
X133132286Y-53013429D01*
X133168571Y-52977143D01*
X133204857Y-52904571D01*
X133204857Y-52287714D01*
X133495143Y-52287714D02*
X133966857Y-52287714D01*
X133712857Y-52578000D01*
X133821715Y-52578000D01*
X133894286Y-52614286D01*
X133930572Y-52650571D01*
X133966857Y-52723143D01*
X133966857Y-52904571D01*
X133930572Y-52977143D01*
X133894286Y-53013429D01*
X133821715Y-53049714D01*
X133604000Y-53049714D01*
X133531429Y-53013429D01*
X133495143Y-52977143D01*
X133694714Y-58438142D02*
X133694714Y-58800999D01*
X132932714Y-58800999D01*
X133694714Y-58184142D02*
X132932714Y-58184142D01*
X133477000Y-57930142D01*
X132932714Y-57676142D01*
X133694714Y-57676142D01*
X132932714Y-57385857D02*
X132932714Y-56914143D01*
X133223000Y-57168143D01*
X133223000Y-57059285D01*
X133259286Y-56986714D01*
X133295571Y-56950428D01*
X133368143Y-56914143D01*
X133549571Y-56914143D01*
X133622143Y-56950428D01*
X133658429Y-56986714D01*
X133694714Y-57059285D01*
X133694714Y-57277000D01*
X133658429Y-57349571D01*
X133622143Y-57385857D01*
X132932714Y-56224714D02*
X132932714Y-56587571D01*
X133295571Y-56623857D01*
X133259286Y-56587571D01*
X133223000Y-56515000D01*
X133223000Y-56333571D01*
X133259286Y-56261000D01*
X133295571Y-56224714D01*
X133368143Y-56188429D01*
X133549571Y-56188429D01*
X133622143Y-56224714D01*
X133658429Y-56261000D01*
X133694714Y-56333571D01*
X133694714Y-56515000D01*
X133658429Y-56587571D01*
X133622143Y-56623857D01*
X133259286Y-55753000D02*
X133223000Y-55825572D01*
X133186714Y-55861857D01*
X133114143Y-55898143D01*
X133077857Y-55898143D01*
X133005286Y-55861857D01*
X132969000Y-55825572D01*
X132932714Y-55753000D01*
X132932714Y-55607857D01*
X132969000Y-55535286D01*
X133005286Y-55499000D01*
X133077857Y-55462715D01*
X133114143Y-55462715D01*
X133186714Y-55499000D01*
X133223000Y-55535286D01*
X133259286Y-55607857D01*
X133259286Y-55753000D01*
X133295571Y-55825572D01*
X133331857Y-55861857D01*
X133404429Y-55898143D01*
X133549571Y-55898143D01*
X133622143Y-55861857D01*
X133658429Y-55825572D01*
X133694714Y-55753000D01*
X133694714Y-55607857D01*
X133658429Y-55535286D01*
X133622143Y-55499000D01*
X133549571Y-55462715D01*
X133404429Y-55462715D01*
X133331857Y-55499000D01*
X133295571Y-55535286D01*
X133259286Y-55607857D01*
M02*
