G04 #@! TF.FileFunction,Copper,L1,Top,Signal*
%FSLAX46Y46*%
G04 Gerber Fmt 4.6, Leading zero omitted, Abs format (unit mm)*
G04 Created by KiCad (PCBNEW 4.0.5+dfsg1-4~bpo8+1) date Thu Apr 20 00:43:30 2017*
%MOMM*%
%LPD*%
G01*
G04 APERTURE LIST*
%ADD10C,0.100000*%
%ADD11R,2.895600X1.498600*%
%ADD12R,1.498600X2.895600*%
%ADD13R,1.498600X1.498600*%
%ADD14O,1.498600X1.498600*%
%ADD15R,1.752600X1.752600*%
%ADD16O,1.752600X1.752600*%
%ADD17R,2.032000X2.032000*%
%ADD18O,2.032000X2.032000*%
%ADD19R,2.032000X1.727200*%
%ADD20O,2.032000X1.727200*%
%ADD21C,0.508000*%
%ADD22C,1.016000*%
%ADD23C,0.254000*%
G04 APERTURE END LIST*
D10*
D11*
X109791500Y-41910000D03*
X106108500Y-41910000D03*
D12*
X144780000Y-62928500D03*
X144780000Y-66611500D03*
X144780000Y-46291500D03*
X144780000Y-42608500D03*
D13*
X135890000Y-36830000D03*
D14*
X135890000Y-34290000D03*
D13*
X109220000Y-34290000D03*
D14*
X109220000Y-36830000D03*
D12*
X111760000Y-59118500D03*
X111760000Y-62801500D03*
D11*
X135191500Y-48260000D03*
X131508500Y-48260000D03*
X135191500Y-63500000D03*
X131508500Y-63500000D03*
D12*
X127000000Y-57721500D03*
X127000000Y-54038500D03*
D11*
X132016500Y-68580000D03*
X128333500Y-68580000D03*
D15*
X130810000Y-44450000D03*
D16*
X130810000Y-34290000D03*
D15*
X114300000Y-34290000D03*
D16*
X114300000Y-44450000D03*
D15*
X122555000Y-46990000D03*
D16*
X122555000Y-44450000D03*
D13*
X104140000Y-45720000D03*
D14*
X104140000Y-48260000D03*
X104140000Y-50800000D03*
X104140000Y-53340000D03*
X111760000Y-53340000D03*
X111760000Y-50800000D03*
X111760000Y-45720000D03*
X111760000Y-48260000D03*
D17*
X127000000Y-33655000D03*
D18*
X124460000Y-33655000D03*
D17*
X120650000Y-33655000D03*
D18*
X118110000Y-33655000D03*
D17*
X109220000Y-79375000D03*
D18*
X111760000Y-79375000D03*
D19*
X99695000Y-45720000D03*
D20*
X99695000Y-48260000D03*
X99695000Y-50800000D03*
X99695000Y-53340000D03*
D15*
X130175000Y-73025000D03*
D16*
X132715000Y-73025000D03*
X135255000Y-73025000D03*
D14*
X100330000Y-68580000D03*
X110490000Y-68580000D03*
X110490000Y-71120000D03*
X100330000Y-71120000D03*
X114935000Y-69215000D03*
X125095000Y-69215000D03*
X124460000Y-60960000D03*
X124460000Y-50800000D03*
X125095000Y-74295000D03*
X114935000Y-74295000D03*
X125095000Y-71755000D03*
X114935000Y-71755000D03*
X121920000Y-60960000D03*
X121920000Y-50800000D03*
X137795000Y-76835000D03*
X127635000Y-76835000D03*
X125095000Y-76835000D03*
X114935000Y-76835000D03*
X137795000Y-79375000D03*
X127635000Y-79375000D03*
X125095000Y-79375000D03*
X114935000Y-79375000D03*
X117475000Y-41910000D03*
X127635000Y-41910000D03*
D15*
X144780000Y-57150000D03*
D16*
X144780000Y-54610000D03*
X144780000Y-52070000D03*
D13*
X107950000Y-57150000D03*
D14*
X105410000Y-57150000D03*
X102870000Y-57150000D03*
X100330000Y-57150000D03*
X100330000Y-64770000D03*
X102870000Y-64770000D03*
X107950000Y-64770000D03*
X105410000Y-64770000D03*
D13*
X129540000Y-52070000D03*
D14*
X129540000Y-54610000D03*
X129540000Y-57150000D03*
X129540000Y-59690000D03*
X137160000Y-59690000D03*
X137160000Y-57150000D03*
X137160000Y-52070000D03*
X137160000Y-54610000D03*
D21*
X110490000Y-41910000D02*
X110490000Y-41275000D01*
X110490000Y-41275000D02*
X107315000Y-38100000D01*
X119380000Y-46990000D02*
X122555000Y-46990000D01*
X115570000Y-43180000D02*
X119380000Y-46990000D01*
X115570000Y-39370000D02*
X115570000Y-43180000D01*
X111760000Y-35560000D02*
X115570000Y-39370000D01*
X107950000Y-35560000D02*
X111760000Y-35560000D01*
X107315000Y-36195000D02*
X107950000Y-35560000D01*
X107315000Y-38100000D02*
X107315000Y-36195000D01*
X144780000Y-46990000D02*
X144780000Y-46355000D01*
X144780000Y-46355000D02*
X138430000Y-40005000D01*
X125095000Y-46990000D02*
X122555000Y-46990000D01*
X129540000Y-42545000D02*
X125095000Y-46990000D01*
X129540000Y-38735000D02*
X129540000Y-42545000D01*
X132715000Y-35560000D02*
X129540000Y-38735000D01*
X137160000Y-35560000D02*
X132715000Y-35560000D01*
X138430000Y-36830000D02*
X137160000Y-35560000D01*
X138430000Y-40005000D02*
X138430000Y-36830000D01*
X111760000Y-58420000D02*
X111760000Y-55880000D01*
X114300000Y-48260000D02*
X111760000Y-45720000D01*
X114300000Y-53340000D02*
X114300000Y-48260000D01*
X111760000Y-55880000D02*
X114300000Y-53340000D01*
X144780000Y-52070000D02*
X144780000Y-46990000D01*
X102870000Y-64770000D02*
X107950000Y-59690000D01*
X107950000Y-59690000D02*
X107950000Y-57150000D01*
X111760000Y-58420000D02*
X110490000Y-57150000D01*
X110490000Y-57150000D02*
X107950000Y-57150000D01*
X99695000Y-45720000D02*
X100965000Y-44450000D01*
X100965000Y-44450000D02*
X106680000Y-44450000D01*
X106680000Y-44450000D02*
X110490000Y-44450000D01*
X110490000Y-44450000D02*
X111760000Y-45720000D01*
X110490000Y-41910000D02*
X111760000Y-43180000D01*
X111760000Y-43180000D02*
X111760000Y-45720000D01*
D22*
X140970000Y-64770000D02*
X140970000Y-66675000D01*
X132715000Y-68580000D02*
X137160000Y-68580000D01*
X140970000Y-64770000D02*
X140970000Y-55880000D01*
X139065000Y-68580000D02*
X137160000Y-68580000D01*
X140970000Y-66675000D02*
X139065000Y-68580000D01*
D21*
X135890000Y-48260000D02*
X135890000Y-44450000D01*
X135890000Y-48260000D02*
X135890000Y-50800000D01*
X135890000Y-50800000D02*
X137160000Y-52070000D01*
D22*
X132715000Y-68580000D02*
X132715000Y-73025000D01*
X144780000Y-62230000D02*
X144780000Y-57150000D01*
X130810000Y-44450000D02*
X135890000Y-44450000D01*
X135890000Y-44450000D02*
X137160000Y-44450000D01*
X140970000Y-48260000D02*
X140970000Y-55880000D01*
X137160000Y-44450000D02*
X140970000Y-48260000D01*
X142240000Y-57150000D02*
X144780000Y-57150000D01*
X140970000Y-55880000D02*
X142240000Y-57150000D01*
X130810000Y-44450000D02*
X130810000Y-39370000D01*
X133350000Y-36830000D02*
X135890000Y-36830000D01*
X130810000Y-39370000D02*
X133350000Y-36830000D01*
D21*
X116840000Y-46990000D02*
X118745000Y-48895000D01*
X128270000Y-49530000D02*
X129540000Y-50800000D01*
X129540000Y-50800000D02*
X130810000Y-50800000D01*
X130810000Y-50800000D02*
X132080000Y-52070000D01*
X132080000Y-52070000D02*
X132080000Y-62230000D01*
X130810000Y-63500000D02*
X132080000Y-62230000D01*
X116840000Y-46990000D02*
X114300000Y-44450000D01*
X127635000Y-48895000D02*
X128270000Y-49530000D01*
X118745000Y-48895000D02*
X127635000Y-48895000D01*
X129540000Y-59690000D02*
X129540000Y-62230000D01*
X129540000Y-62230000D02*
X130810000Y-63500000D01*
X114300000Y-44450000D02*
X114300000Y-39370000D01*
X114300000Y-39370000D02*
X111760000Y-36830000D01*
X111760000Y-36830000D02*
X109220000Y-36830000D01*
X124460000Y-60960000D02*
X124460000Y-57150000D01*
X121920000Y-54610000D02*
X121920000Y-50800000D01*
X124460000Y-57150000D02*
X121920000Y-54610000D01*
X124460000Y-60960000D02*
X127000000Y-58420000D01*
X129540000Y-54610000D02*
X127000000Y-57150000D01*
X127000000Y-57150000D02*
X127000000Y-58420000D01*
X124460000Y-50800000D02*
X127000000Y-53340000D01*
X129540000Y-52070000D02*
X128270000Y-52070000D01*
X128270000Y-52070000D02*
X127000000Y-53340000D01*
D22*
X127000000Y-33655000D02*
X130175000Y-33655000D01*
X130175000Y-33655000D02*
X130810000Y-34290000D01*
D21*
X122555000Y-44450000D02*
X120015000Y-41910000D01*
X120015000Y-41910000D02*
X117475000Y-41910000D01*
X99695000Y-48260000D02*
X104140000Y-48260000D01*
X99695000Y-50800000D02*
X104140000Y-50800000D01*
X105410000Y-57150000D02*
X106680000Y-55880000D01*
X109220000Y-55880000D02*
X111760000Y-53340000D01*
X107950000Y-55880000D02*
X109220000Y-55880000D01*
X106680000Y-55880000D02*
X107950000Y-55880000D01*
X111760000Y-50800000D02*
X110490000Y-50800000D01*
X102870000Y-54610000D02*
X100330000Y-57150000D01*
X104140000Y-54610000D02*
X102870000Y-54610000D01*
X105410000Y-54610000D02*
X104140000Y-54610000D01*
X106680000Y-53340000D02*
X105410000Y-54610000D01*
X107950000Y-52070000D02*
X106680000Y-53340000D01*
X109220000Y-50800000D02*
X107950000Y-52070000D01*
X110490000Y-50800000D02*
X109220000Y-50800000D01*
X111760000Y-48260000D02*
X113030000Y-49530000D01*
X104140000Y-55880000D02*
X102870000Y-57150000D01*
X105410000Y-55880000D02*
X104140000Y-55880000D01*
X106680000Y-54610000D02*
X105410000Y-55880000D01*
X107950000Y-54610000D02*
X106680000Y-54610000D01*
X109220000Y-53340000D02*
X107950000Y-54610000D01*
X110490000Y-52070000D02*
X109220000Y-53340000D01*
X111760000Y-52070000D02*
X110490000Y-52070000D01*
X113030000Y-52070000D02*
X111760000Y-52070000D01*
X113030000Y-50800000D02*
X113030000Y-52070000D01*
X113030000Y-49530000D02*
X113030000Y-50800000D01*
X109855000Y-76835000D02*
X108585000Y-75565000D01*
X117475000Y-65405000D02*
X121920000Y-60960000D01*
X111125000Y-65405000D02*
X117475000Y-65405000D01*
X108585000Y-67945000D02*
X111125000Y-65405000D01*
X108585000Y-75565000D02*
X108585000Y-67945000D01*
D22*
X114935000Y-76835000D02*
X109855000Y-76835000D01*
X109220000Y-77470000D02*
X109220000Y-79375000D01*
X109855000Y-76835000D02*
X109220000Y-77470000D01*
X114935000Y-79375000D02*
X114935000Y-76835000D01*
D21*
X130175000Y-73025000D02*
X126365000Y-73025000D01*
X126365000Y-73025000D02*
X125095000Y-74295000D01*
D23*
X125095000Y-71755000D02*
X131445000Y-71755000D01*
X133985000Y-74295000D02*
X135255000Y-73025000D01*
X131445000Y-74295000D02*
X133985000Y-74295000D01*
X131445000Y-71755000D02*
X131445000Y-74295000D01*
D22*
X137795000Y-76835000D02*
X137795000Y-79375000D01*
X135255000Y-73025000D02*
X135255000Y-74295000D01*
X135255000Y-74295000D02*
X137795000Y-76835000D01*
D21*
X107950000Y-64770000D02*
X107950000Y-66040000D01*
X105410000Y-68580000D02*
X100330000Y-68580000D01*
X107950000Y-66040000D02*
X105410000Y-68580000D01*
X110490000Y-68580000D02*
X111125000Y-68580000D01*
X111125000Y-68580000D02*
X113030000Y-70485000D01*
X137795000Y-60325000D02*
X137160000Y-59690000D01*
X137795000Y-64770000D02*
X137795000Y-60325000D01*
X137160000Y-65405000D02*
X137795000Y-64770000D01*
X123825000Y-65405000D02*
X137160000Y-65405000D01*
X116205000Y-73025000D02*
X123825000Y-65405000D01*
X113665000Y-73025000D02*
X116205000Y-73025000D01*
X113030000Y-72390000D02*
X113665000Y-73025000D01*
X113030000Y-70485000D02*
X113030000Y-72390000D01*
X110490000Y-68580000D02*
X110490000Y-71120000D01*
X129540000Y-57150000D02*
X129540000Y-57785000D01*
X129540000Y-57785000D02*
X128270000Y-59055000D01*
X128270000Y-59055000D02*
X128270000Y-59690000D01*
X128270000Y-59690000D02*
X127635000Y-60325000D01*
X127635000Y-60325000D02*
X123825000Y-64135000D01*
X123825000Y-64135000D02*
X120015000Y-67945000D01*
X120015000Y-67945000D02*
X118745000Y-69215000D01*
X118745000Y-69215000D02*
X114935000Y-69215000D01*
X114935000Y-71755000D02*
X114935000Y-69215000D01*
X114935000Y-74295000D02*
X116840000Y-74295000D01*
X139065000Y-56515000D02*
X137160000Y-54610000D01*
X139065000Y-65405000D02*
X139065000Y-56515000D01*
X137795000Y-66675000D02*
X139065000Y-65405000D01*
X124460000Y-66675000D02*
X137795000Y-66675000D01*
X116840000Y-74295000D02*
X124460000Y-66675000D01*
D22*
X127635000Y-76835000D02*
X125095000Y-76835000D01*
X127635000Y-79375000D02*
X125095000Y-79375000D01*
D21*
X118110000Y-33655000D02*
X114935000Y-33655000D01*
X114935000Y-33655000D02*
X114300000Y-34290000D01*
M02*
