G04 #@! TF.FileFunction,Legend,Bot*
%FSLAX46Y46*%
G04 Gerber Fmt 4.6, Leading zero omitted, Abs format (unit mm)*
G04 Created by KiCad (PCBNEW 4.0.5+dfsg1-4~bpo8+1) date Thu Apr 20 00:22:00 2017*
%MOMM*%
%LPD*%
G01*
G04 APERTURE LIST*
%ADD10C,0.100000*%
%ADD11C,0.152400*%
%ADD12C,0.127000*%
G04 APERTURE END LIST*
D10*
D11*
X111469715Y-76889429D02*
X112050286Y-76889429D01*
X108929715Y-76889429D02*
X109510286Y-76889429D01*
X109220000Y-77179714D02*
X109220000Y-76599143D01*
D12*
X112017024Y-75217262D02*
X111896072Y-75217262D01*
X111835596Y-75247500D01*
X111775119Y-75307976D01*
X111744881Y-75428929D01*
X111744881Y-75640595D01*
X111775119Y-75761548D01*
X111835596Y-75822024D01*
X111896072Y-75852262D01*
X112017024Y-75852262D01*
X112077500Y-75822024D01*
X112137977Y-75761548D01*
X112168215Y-75640595D01*
X112168215Y-75428929D01*
X112137977Y-75307976D01*
X112077500Y-75247500D01*
X112017024Y-75217262D01*
X111472739Y-75217262D02*
X111472739Y-75731310D01*
X111442500Y-75791786D01*
X111412262Y-75822024D01*
X111351786Y-75852262D01*
X111230834Y-75852262D01*
X111170358Y-75822024D01*
X111140119Y-75791786D01*
X111109881Y-75731310D01*
X111109881Y-75217262D01*
X110898215Y-75217262D02*
X110535358Y-75217262D01*
X110716786Y-75852262D02*
X110716786Y-75217262D01*
X110323691Y-75852262D02*
X110323691Y-75217262D01*
X110081786Y-75217262D01*
X110021310Y-75247500D01*
X109991071Y-75277738D01*
X109960833Y-75338214D01*
X109960833Y-75428929D01*
X109991071Y-75489405D01*
X110021310Y-75519643D01*
X110081786Y-75549881D01*
X110323691Y-75549881D01*
X109688691Y-75217262D02*
X109688691Y-75731310D01*
X109658452Y-75791786D01*
X109628214Y-75822024D01*
X109567738Y-75852262D01*
X109446786Y-75852262D01*
X109386310Y-75822024D01*
X109356071Y-75791786D01*
X109325833Y-75731310D01*
X109325833Y-75217262D01*
X109114167Y-75217262D02*
X108751310Y-75217262D01*
X108932738Y-75852262D02*
X108932738Y-75217262D01*
D11*
X124169715Y-36249429D02*
X124750286Y-36249429D01*
X126709715Y-36249429D02*
X127290286Y-36249429D01*
X127000000Y-36539714D02*
X127000000Y-35959143D01*
D12*
X126531310Y-37847512D02*
X126531310Y-37212512D01*
X126289405Y-37212512D01*
X126228929Y-37242750D01*
X126198690Y-37272988D01*
X126168452Y-37333464D01*
X126168452Y-37424179D01*
X126198690Y-37484655D01*
X126228929Y-37514893D01*
X126289405Y-37545131D01*
X126531310Y-37545131D01*
X125775357Y-37212512D02*
X125654405Y-37212512D01*
X125593929Y-37242750D01*
X125533452Y-37303226D01*
X125503214Y-37424179D01*
X125503214Y-37635845D01*
X125533452Y-37756798D01*
X125593929Y-37817274D01*
X125654405Y-37847512D01*
X125775357Y-37847512D01*
X125835833Y-37817274D01*
X125896310Y-37756798D01*
X125926548Y-37635845D01*
X125926548Y-37424179D01*
X125896310Y-37303226D01*
X125835833Y-37242750D01*
X125775357Y-37212512D01*
X125261310Y-37817274D02*
X125170595Y-37847512D01*
X125019405Y-37847512D01*
X124958929Y-37817274D01*
X124928691Y-37787036D01*
X124898452Y-37726560D01*
X124898452Y-37666083D01*
X124928691Y-37605607D01*
X124958929Y-37575369D01*
X125019405Y-37545131D01*
X125140357Y-37514893D01*
X125200833Y-37484655D01*
X125231072Y-37454417D01*
X125261310Y-37393940D01*
X125261310Y-37333464D01*
X125231072Y-37272988D01*
X125200833Y-37242750D01*
X125140357Y-37212512D01*
X124989167Y-37212512D01*
X124898452Y-37242750D01*
X127408215Y-38896774D02*
X127317500Y-38927012D01*
X127166310Y-38927012D01*
X127105834Y-38896774D01*
X127075596Y-38866536D01*
X127045357Y-38806060D01*
X127045357Y-38745583D01*
X127075596Y-38685107D01*
X127105834Y-38654869D01*
X127166310Y-38624631D01*
X127287262Y-38594393D01*
X127347738Y-38564155D01*
X127377977Y-38533917D01*
X127408215Y-38473440D01*
X127408215Y-38412964D01*
X127377977Y-38352488D01*
X127347738Y-38322250D01*
X127287262Y-38292012D01*
X127136072Y-38292012D01*
X127045357Y-38322250D01*
X126773215Y-38292012D02*
X126773215Y-38806060D01*
X126742976Y-38866536D01*
X126712738Y-38896774D01*
X126652262Y-38927012D01*
X126531310Y-38927012D01*
X126470834Y-38896774D01*
X126440595Y-38866536D01*
X126410357Y-38806060D01*
X126410357Y-38292012D01*
X126107977Y-38927012D02*
X126107977Y-38292012D01*
X125866072Y-38292012D01*
X125805596Y-38322250D01*
X125775357Y-38352488D01*
X125745119Y-38412964D01*
X125745119Y-38503679D01*
X125775357Y-38564155D01*
X125805596Y-38594393D01*
X125866072Y-38624631D01*
X126107977Y-38624631D01*
X125472977Y-38927012D02*
X125472977Y-38292012D01*
X125231072Y-38292012D01*
X125170596Y-38322250D01*
X125140357Y-38352488D01*
X125110119Y-38412964D01*
X125110119Y-38503679D01*
X125140357Y-38564155D01*
X125170596Y-38594393D01*
X125231072Y-38624631D01*
X125472977Y-38624631D01*
X124535596Y-38927012D02*
X124837977Y-38927012D01*
X124837977Y-38292012D01*
X124202976Y-38624631D02*
X124202976Y-38927012D01*
X124414643Y-38292012D02*
X124202976Y-38624631D01*
X123991309Y-38292012D01*
X120166191Y-37847512D02*
X120166191Y-37212512D01*
X119803333Y-37847512D01*
X119803333Y-37212512D01*
X119500953Y-37514893D02*
X119289286Y-37514893D01*
X119198572Y-37847512D02*
X119500953Y-37847512D01*
X119500953Y-37212512D01*
X119198572Y-37212512D01*
X118593809Y-37242750D02*
X118654286Y-37212512D01*
X118745000Y-37212512D01*
X118835714Y-37242750D01*
X118896190Y-37303226D01*
X118926429Y-37363702D01*
X118956667Y-37484655D01*
X118956667Y-37575369D01*
X118926429Y-37696321D01*
X118896190Y-37756798D01*
X118835714Y-37817274D01*
X118745000Y-37847512D01*
X118684524Y-37847512D01*
X118593809Y-37817274D01*
X118563571Y-37787036D01*
X118563571Y-37575369D01*
X118684524Y-37575369D01*
X121058215Y-38896774D02*
X120967500Y-38927012D01*
X120816310Y-38927012D01*
X120755834Y-38896774D01*
X120725596Y-38866536D01*
X120695357Y-38806060D01*
X120695357Y-38745583D01*
X120725596Y-38685107D01*
X120755834Y-38654869D01*
X120816310Y-38624631D01*
X120937262Y-38594393D01*
X120997738Y-38564155D01*
X121027977Y-38533917D01*
X121058215Y-38473440D01*
X121058215Y-38412964D01*
X121027977Y-38352488D01*
X120997738Y-38322250D01*
X120937262Y-38292012D01*
X120786072Y-38292012D01*
X120695357Y-38322250D01*
X120423215Y-38292012D02*
X120423215Y-38806060D01*
X120392976Y-38866536D01*
X120362738Y-38896774D01*
X120302262Y-38927012D01*
X120181310Y-38927012D01*
X120120834Y-38896774D01*
X120090595Y-38866536D01*
X120060357Y-38806060D01*
X120060357Y-38292012D01*
X119757977Y-38927012D02*
X119757977Y-38292012D01*
X119516072Y-38292012D01*
X119455596Y-38322250D01*
X119425357Y-38352488D01*
X119395119Y-38412964D01*
X119395119Y-38503679D01*
X119425357Y-38564155D01*
X119455596Y-38594393D01*
X119516072Y-38624631D01*
X119757977Y-38624631D01*
X119122977Y-38927012D02*
X119122977Y-38292012D01*
X118881072Y-38292012D01*
X118820596Y-38322250D01*
X118790357Y-38352488D01*
X118760119Y-38412964D01*
X118760119Y-38503679D01*
X118790357Y-38564155D01*
X118820596Y-38594393D01*
X118881072Y-38624631D01*
X119122977Y-38624631D01*
X118185596Y-38927012D02*
X118487977Y-38927012D01*
X118487977Y-38292012D01*
X117852976Y-38624631D02*
X117852976Y-38927012D01*
X118064643Y-38292012D02*
X117852976Y-38624631D01*
X117641309Y-38292012D01*
D11*
X120359715Y-36249429D02*
X120940286Y-36249429D01*
X120650000Y-36539714D02*
X120650000Y-35959143D01*
X117819715Y-36249429D02*
X118400286Y-36249429D01*
M02*
