M48
INCH,TZ
T1C0.032
T2C0.040
T3C0.126
%
G90
G05
T1
X3.95Y-2.25
X3.95Y-2.55
X3.95Y-2.7
X3.95Y-2.8
X4.05Y-2.25
X4.05Y-2.55
X4.1Y-1.8
X4.1Y-1.9
X4.1Y-2.
X4.1Y-2.1
X4.15Y-1.65
X4.15Y-2.25
X4.15Y-2.55
X4.25Y-2.25
X4.25Y-2.55
X4.3Y-1.35
X4.3Y-1.45
X4.35Y-1.65
X4.35Y-2.7
X4.35Y-2.8
X4.4Y-1.8
X4.4Y-1.9
X4.4Y-2.
X4.4Y-2.1
X4.4Y-2.3
X4.4Y-2.5
X4.525Y-2.725
X4.525Y-2.825
X4.525Y-2.925
X4.525Y-3.025
X4.525Y-3.125
X4.625Y-1.65
X4.8Y-2.
X4.8Y-2.4
X4.9Y-2.
X4.9Y-2.4
X4.925Y-2.725
X4.925Y-2.825
X4.925Y-2.925
X4.925Y-3.025
X4.925Y-3.125
X5.Y-2.1
X5.Y-2.3
X5.025Y-1.65
X5.025Y-2.7
X5.025Y-3.025
X5.025Y-3.125
X5.1Y-2.05
X5.1Y-2.15
X5.1Y-2.25
X5.1Y-2.35
X5.15Y-1.9
X5.15Y-2.5
X5.225Y-2.7
X5.35Y-1.35
X5.35Y-1.45
X5.35Y-1.9
X5.35Y-2.5
X5.4Y-2.05
X5.4Y-2.15
X5.4Y-2.25
X5.4Y-2.35
X5.425Y-3.025
X5.425Y-3.125
X5.7Y-1.65
X5.7Y-1.85
X5.7Y-2.45
X5.7Y-2.65
T2
X3.925Y-1.8
X3.925Y-1.9
X3.925Y-2.
X3.925Y-2.1
X4.3Y-3.125
X4.4Y-3.125
X4.5Y-1.35
X4.5Y-1.75
X4.65Y-1.325
X4.75Y-1.325
X4.825Y-1.75
X4.825Y-1.85
X4.9Y-1.325
X5.Y-1.325
X5.125Y-2.875
X5.15Y-1.35
X5.15Y-1.75
X5.225Y-2.875
X5.325Y-2.875
X5.7Y-2.05
X5.7Y-2.15
X5.7Y-2.25
T3
X4.Y-1.4
X4.Y-3.05
X5.65Y-1.4
X5.65Y-3.05
T0
M30
